G04 PROTEUS GERBER X2 FILE*
%TF.GenerationSoftware,Labcenter,Proteus,8.17-SP2-Build37159*%
%TF.CreationDate,2026-01-23T14:54:38+00:00*%
%TF.FileFunction,Legend,Bot*%
%TF.FilePolarity,Positive*%
%TF.Part,Single*%
%TF.SameCoordinates,{c806fbc5-056e-4950-b10f-91aba8f6062f}*%
%FSLAX45Y45*%
%MOMM*%
G01*
%TA.AperFunction,Profile*%
%ADD72C,0.101600*%
%TA.AperFunction,Material*%
%ADD41C,0.200000*%
%ADD38C,0.101600*%
%ADD39C,0.127000*%
%TD.AperFunction*%
D72*
X+165000Y+145000D02*
X+12885004Y+145000D01*
X+12885004Y+7395000D01*
X+165000Y+7395000D01*
X+165000Y+145000D01*
X+9695000Y+2565000D02*
X+10025000Y+2565000D01*
X+10025000Y+3275000D01*
X+9695000Y+3275000D01*
X+9695000Y+2565000D01*
X+1265000Y+6165000D02*
X+1370000Y+6165000D01*
X+1370000Y+7295000D01*
X+1265000Y+7295000D01*
X+1265000Y+6165000D01*
X+9405000Y+2105000D02*
X+9405000Y+1595000D01*
X+9245000Y+1495000D01*
X+8905000Y+1495000D01*
X+8765000Y+1385000D01*
X+8765000Y+1105000D01*
X+8905000Y+1025000D01*
X+9245000Y+1025000D01*
X+9395000Y+935000D01*
X+9395000Y+465000D01*
X+9425000Y+465000D01*
X+9425000Y+955000D01*
X+9245000Y+1065000D01*
X+8905000Y+1065000D01*
X+8805000Y+1125000D01*
X+8805000Y+1365000D01*
X+8915000Y+1455000D01*
X+9265000Y+1455000D01*
X+9445000Y+1575000D01*
X+9445000Y+2105000D01*
X+9405000Y+2105000D01*
X+10435000Y+2995000D02*
X+10645000Y+2995000D01*
X+10645000Y+3035000D01*
X+10435000Y+3035000D01*
X+10435000Y+2995000D01*
D41*
X+11426715Y+5268566D02*
X+11370146Y+5325135D01*
D38*
X+11270418Y+5060693D02*
X+11280745Y+5060244D01*
X+11295562Y+5075061D01*
X+11294664Y+5095716D01*
X+11283888Y+5106492D01*
X+11263233Y+5107390D01*
X+11248416Y+5092573D01*
X+11248865Y+5082245D01*
X+11214740Y+5037344D02*
X+11225068Y+5036895D01*
X+11239885Y+5051712D01*
X+11239436Y+5062040D01*
X+11234048Y+5067428D01*
X+11223720Y+5067877D01*
X+11208903Y+5053060D01*
X+11209352Y+5042732D01*
X+11230905Y+5021180D01*
X+11241232Y+5020731D01*
X+11256049Y+5035548D01*
D41*
X+11309853Y+5400146D02*
X+11253284Y+5456715D01*
D38*
X+11483312Y+5672030D02*
X+11493639Y+5671581D01*
X+11508456Y+5686398D01*
X+11507558Y+5707053D01*
X+11496782Y+5717829D01*
X+11476127Y+5718727D01*
X+11461310Y+5703910D01*
X+11461759Y+5693582D01*
X+11447391Y+5668438D02*
X+11426736Y+5669336D01*
X+11459065Y+5637007D01*
X+11433921Y+5622638D02*
X+11412368Y+5644191D01*
X+11402041Y+5644640D01*
X+11382284Y+5624884D01*
X+11382733Y+5614556D01*
X+11404286Y+5593004D01*
X+11414613Y+5592555D01*
X+11434370Y+5612311D01*
X+11433921Y+5622638D01*
X+11439309Y+5617250D02*
X+11377345Y+5619944D01*
D72*
X+10025000Y+3275000D02*
X+10025000Y+3395000D01*
X+12275000Y+3395000D01*
X+12275000Y+3465000D01*
X+9695000Y+3465000D01*
X+9695000Y+3275000D01*
X+10025000Y+3275000D01*
X+9405000Y+2105000D02*
X+12235000Y+2105000D01*
X+12235000Y+2185000D01*
X+9405000Y+2185000D01*
X+9405000Y+2105000D01*
D41*
X+10189771Y+5565434D02*
X+10189736Y+5566265D01*
X+10189455Y+5567929D01*
X+10188865Y+5569593D01*
X+10187901Y+5571257D01*
X+10186426Y+5572898D01*
X+10184762Y+5574099D01*
X+10183098Y+5574864D01*
X+10181434Y+5575295D01*
X+10179771Y+5575434D01*
X+10169771Y+5565434D02*
X+10169806Y+5566265D01*
X+10170087Y+5567929D01*
X+10170677Y+5569593D01*
X+10171641Y+5571257D01*
X+10173116Y+5572898D01*
X+10174780Y+5574099D01*
X+10176444Y+5574864D01*
X+10178108Y+5575295D01*
X+10179771Y+5575434D01*
X+10169771Y+5565434D02*
X+10169806Y+5564603D01*
X+10170087Y+5562939D01*
X+10170677Y+5561275D01*
X+10171641Y+5559611D01*
X+10173116Y+5557970D01*
X+10174780Y+5556769D01*
X+10176444Y+5556004D01*
X+10178108Y+5555573D01*
X+10179771Y+5555434D01*
X+10189771Y+5565434D02*
X+10189736Y+5564603D01*
X+10189455Y+5562939D01*
X+10188865Y+5561275D01*
X+10187901Y+5559611D01*
X+10186426Y+5557970D01*
X+10184762Y+5556769D01*
X+10183098Y+5556004D01*
X+10181434Y+5555573D01*
X+10179771Y+5555434D01*
D39*
X+10013249Y+5415172D02*
X+9702122Y+5104045D01*
X+10501152Y+4927269D02*
X+10190025Y+4616142D01*
D38*
X+9880190Y+5437822D02*
X+9925091Y+5392921D01*
X+9924642Y+5374511D01*
X+9886925Y+5336794D01*
X+9868516Y+5336345D01*
X+9823614Y+5381246D01*
X+9803858Y+5325569D02*
X+9767039Y+5324671D01*
X+9820920Y+5270789D01*
X+10862000Y+4195000D02*
X+10861573Y+4205409D01*
X+10858101Y+4226228D01*
X+10850845Y+4247047D01*
X+10839017Y+4267866D01*
X+10820920Y+4288524D01*
X+10800101Y+4304045D01*
X+10779282Y+4314030D01*
X+10758463Y+4319814D01*
X+10737644Y+4321972D01*
X+10735000Y+4322000D01*
X+10608000Y+4195000D02*
X+10608427Y+4205409D01*
X+10611899Y+4226228D01*
X+10619155Y+4247047D01*
X+10630983Y+4267866D01*
X+10649080Y+4288524D01*
X+10669899Y+4304045D01*
X+10690718Y+4314030D01*
X+10711537Y+4319814D01*
X+10732356Y+4321972D01*
X+10735000Y+4322000D01*
X+10608000Y+4195000D02*
X+10608427Y+4184591D01*
X+10611899Y+4163772D01*
X+10619155Y+4142953D01*
X+10630983Y+4122134D01*
X+10649080Y+4101476D01*
X+10669899Y+4085955D01*
X+10690718Y+4075970D01*
X+10711537Y+4070186D01*
X+10732356Y+4068028D01*
X+10735000Y+4068000D01*
X+10862000Y+4195000D02*
X+10861573Y+4184591D01*
X+10858101Y+4163772D01*
X+10850845Y+4142953D01*
X+10839017Y+4122134D01*
X+10820920Y+4101476D01*
X+10800101Y+4085955D01*
X+10779282Y+4075970D01*
X+10758463Y+4070186D01*
X+10737644Y+4068028D01*
X+10735000Y+4068000D01*
X+10798500Y+4195000D02*
X+10798283Y+4200247D01*
X+10796518Y+4210742D01*
X+10792826Y+4221237D01*
X+10786798Y+4231732D01*
X+10777576Y+4242112D01*
X+10767081Y+4249800D01*
X+10756586Y+4254718D01*
X+10746091Y+4257524D01*
X+10735596Y+4258497D01*
X+10735000Y+4258500D01*
X+10671500Y+4195000D02*
X+10671717Y+4200247D01*
X+10673482Y+4210742D01*
X+10677174Y+4221237D01*
X+10683202Y+4231732D01*
X+10692424Y+4242112D01*
X+10702919Y+4249800D01*
X+10713414Y+4254718D01*
X+10723909Y+4257524D01*
X+10734404Y+4258497D01*
X+10735000Y+4258500D01*
X+10671500Y+4195000D02*
X+10671717Y+4189753D01*
X+10673482Y+4179258D01*
X+10677174Y+4168763D01*
X+10683202Y+4158268D01*
X+10692424Y+4147888D01*
X+10702919Y+4140200D01*
X+10713414Y+4135282D01*
X+10723909Y+4132476D01*
X+10734404Y+4131503D01*
X+10735000Y+4131500D01*
X+10798500Y+4195000D02*
X+10798283Y+4189753D01*
X+10796518Y+4179258D01*
X+10792826Y+4168763D01*
X+10786798Y+4158268D01*
X+10777576Y+4147888D01*
X+10767081Y+4140200D01*
X+10756586Y+4135282D01*
X+10746091Y+4132476D01*
X+10735596Y+4131503D01*
X+10735000Y+4131500D01*
X+10628320Y+4012120D02*
X+10628320Y+4024820D01*
X+10641655Y+4037520D01*
X+10694995Y+4037520D01*
X+10708330Y+4024820D01*
X+10708330Y+3961320D01*
X+10815010Y+3974020D02*
X+10801675Y+3961320D01*
X+10761670Y+3961320D01*
X+10748335Y+3974020D01*
X+10748335Y+4024820D01*
X+10761670Y+4037520D01*
X+10801675Y+4037520D01*
X+10815010Y+4024820D01*
X+10815010Y+4012120D01*
X+10801675Y+3999420D01*
X+10748335Y+3999420D01*
X+10592000Y+4195000D02*
X+10591573Y+4205409D01*
X+10588101Y+4226228D01*
X+10580845Y+4247047D01*
X+10569017Y+4267866D01*
X+10550920Y+4288524D01*
X+10530101Y+4304045D01*
X+10509282Y+4314030D01*
X+10488463Y+4319814D01*
X+10467644Y+4321972D01*
X+10465000Y+4322000D01*
X+10338000Y+4195000D02*
X+10338427Y+4205409D01*
X+10341899Y+4226228D01*
X+10349155Y+4247047D01*
X+10360983Y+4267866D01*
X+10379080Y+4288524D01*
X+10399899Y+4304045D01*
X+10420718Y+4314030D01*
X+10441537Y+4319814D01*
X+10462356Y+4321972D01*
X+10465000Y+4322000D01*
X+10338000Y+4195000D02*
X+10338427Y+4184591D01*
X+10341899Y+4163772D01*
X+10349155Y+4142953D01*
X+10360983Y+4122134D01*
X+10379080Y+4101476D01*
X+10399899Y+4085955D01*
X+10420718Y+4075970D01*
X+10441537Y+4070186D01*
X+10462356Y+4068028D01*
X+10465000Y+4068000D01*
X+10592000Y+4195000D02*
X+10591573Y+4184591D01*
X+10588101Y+4163772D01*
X+10580845Y+4142953D01*
X+10569017Y+4122134D01*
X+10550920Y+4101476D01*
X+10530101Y+4085955D01*
X+10509282Y+4075970D01*
X+10488463Y+4070186D01*
X+10467644Y+4068028D01*
X+10465000Y+4068000D01*
X+10528500Y+4195000D02*
X+10528283Y+4200247D01*
X+10526518Y+4210742D01*
X+10522826Y+4221237D01*
X+10516798Y+4231732D01*
X+10507576Y+4242112D01*
X+10497081Y+4249800D01*
X+10486586Y+4254718D01*
X+10476091Y+4257524D01*
X+10465596Y+4258497D01*
X+10465000Y+4258500D01*
X+10401500Y+4195000D02*
X+10401717Y+4200247D01*
X+10403482Y+4210742D01*
X+10407174Y+4221237D01*
X+10413202Y+4231732D01*
X+10422424Y+4242112D01*
X+10432919Y+4249800D01*
X+10443414Y+4254718D01*
X+10453909Y+4257524D01*
X+10464404Y+4258497D01*
X+10465000Y+4258500D01*
X+10401500Y+4195000D02*
X+10401717Y+4189753D01*
X+10403482Y+4179258D01*
X+10407174Y+4168763D01*
X+10413202Y+4158268D01*
X+10422424Y+4147888D01*
X+10432919Y+4140200D01*
X+10443414Y+4135282D01*
X+10453909Y+4132476D01*
X+10464404Y+4131503D01*
X+10465000Y+4131500D01*
X+10528500Y+4195000D02*
X+10528283Y+4189753D01*
X+10526518Y+4179258D01*
X+10522826Y+4168763D01*
X+10516798Y+4158268D01*
X+10507576Y+4147888D01*
X+10497081Y+4140200D01*
X+10486586Y+4135282D01*
X+10476091Y+4132476D01*
X+10465596Y+4131503D01*
X+10465000Y+4131500D01*
X+10358320Y+4012120D02*
X+10358320Y+4024820D01*
X+10371655Y+4037520D01*
X+10424995Y+4037520D01*
X+10438330Y+4024820D01*
X+10438330Y+3961320D01*
X+10478335Y+3961320D02*
X+10545010Y+3961320D01*
X+10545010Y+3974020D01*
X+10478335Y+4037520D01*
X+11142000Y+4195000D02*
X+11141573Y+4205409D01*
X+11138101Y+4226228D01*
X+11130845Y+4247047D01*
X+11119017Y+4267866D01*
X+11100920Y+4288524D01*
X+11080101Y+4304045D01*
X+11059282Y+4314030D01*
X+11038463Y+4319814D01*
X+11017644Y+4321972D01*
X+11015000Y+4322000D01*
X+10888000Y+4195000D02*
X+10888427Y+4205409D01*
X+10891899Y+4226228D01*
X+10899155Y+4247047D01*
X+10910983Y+4267866D01*
X+10929080Y+4288524D01*
X+10949899Y+4304045D01*
X+10970718Y+4314030D01*
X+10991537Y+4319814D01*
X+11012356Y+4321972D01*
X+11015000Y+4322000D01*
X+10888000Y+4195000D02*
X+10888427Y+4184591D01*
X+10891899Y+4163772D01*
X+10899155Y+4142953D01*
X+10910983Y+4122134D01*
X+10929080Y+4101476D01*
X+10949899Y+4085955D01*
X+10970718Y+4075970D01*
X+10991537Y+4070186D01*
X+11012356Y+4068028D01*
X+11015000Y+4068000D01*
X+11142000Y+4195000D02*
X+11141573Y+4184591D01*
X+11138101Y+4163772D01*
X+11130845Y+4142953D01*
X+11119017Y+4122134D01*
X+11100920Y+4101476D01*
X+11080101Y+4085955D01*
X+11059282Y+4075970D01*
X+11038463Y+4070186D01*
X+11017644Y+4068028D01*
X+11015000Y+4068000D01*
X+11078500Y+4195000D02*
X+11078283Y+4200247D01*
X+11076518Y+4210742D01*
X+11072826Y+4221237D01*
X+11066798Y+4231732D01*
X+11057576Y+4242112D01*
X+11047081Y+4249800D01*
X+11036586Y+4254718D01*
X+11026091Y+4257524D01*
X+11015596Y+4258497D01*
X+11015000Y+4258500D01*
X+10951500Y+4195000D02*
X+10951717Y+4200247D01*
X+10953482Y+4210742D01*
X+10957174Y+4221237D01*
X+10963202Y+4231732D01*
X+10972424Y+4242112D01*
X+10982919Y+4249800D01*
X+10993414Y+4254718D01*
X+11003909Y+4257524D01*
X+11014404Y+4258497D01*
X+11015000Y+4258500D01*
X+10951500Y+4195000D02*
X+10951717Y+4189753D01*
X+10953482Y+4179258D01*
X+10957174Y+4168763D01*
X+10963202Y+4158268D01*
X+10972424Y+4147888D01*
X+10982919Y+4140200D01*
X+10993414Y+4135282D01*
X+11003909Y+4132476D01*
X+11014404Y+4131503D01*
X+11015000Y+4131500D01*
X+11078500Y+4195000D02*
X+11078283Y+4189753D01*
X+11076518Y+4179258D01*
X+11072826Y+4168763D01*
X+11066798Y+4158268D01*
X+11057576Y+4147888D01*
X+11047081Y+4140200D01*
X+11036586Y+4135282D01*
X+11026091Y+4132476D01*
X+11015596Y+4131503D01*
X+11015000Y+4131500D01*
X+10908321Y+4012120D02*
X+10908321Y+4024820D01*
X+10921656Y+4037520D01*
X+10974996Y+4037520D01*
X+10988331Y+4024820D01*
X+10988331Y+3961320D01*
X+11095011Y+3986720D02*
X+11081676Y+3999420D01*
X+11041671Y+3999420D01*
X+11028336Y+3986720D01*
X+11028336Y+3974020D01*
X+11041671Y+3961320D01*
X+11081676Y+3961320D01*
X+11095011Y+3974020D01*
X+11095011Y+4024820D01*
X+11081676Y+4037520D01*
X+11041671Y+4037520D01*
X+10082000Y+4185000D02*
X+10081573Y+4195409D01*
X+10078101Y+4216228D01*
X+10070845Y+4237047D01*
X+10059017Y+4257866D01*
X+10040920Y+4278524D01*
X+10020101Y+4294045D01*
X+9999282Y+4304030D01*
X+9978463Y+4309814D01*
X+9957644Y+4311972D01*
X+9955000Y+4312000D01*
X+9828000Y+4185000D02*
X+9828427Y+4195409D01*
X+9831899Y+4216228D01*
X+9839155Y+4237047D01*
X+9850983Y+4257866D01*
X+9869080Y+4278524D01*
X+9889899Y+4294045D01*
X+9910718Y+4304030D01*
X+9931537Y+4309814D01*
X+9952356Y+4311972D01*
X+9955000Y+4312000D01*
X+9828000Y+4185000D02*
X+9828427Y+4174591D01*
X+9831899Y+4153772D01*
X+9839155Y+4132953D01*
X+9850983Y+4112134D01*
X+9869080Y+4091476D01*
X+9889899Y+4075955D01*
X+9910718Y+4065970D01*
X+9931537Y+4060186D01*
X+9952356Y+4058028D01*
X+9955000Y+4058000D01*
X+10082000Y+4185000D02*
X+10081573Y+4174591D01*
X+10078101Y+4153772D01*
X+10070845Y+4132953D01*
X+10059017Y+4112134D01*
X+10040920Y+4091476D01*
X+10020101Y+4075955D01*
X+9999282Y+4065970D01*
X+9978463Y+4060186D01*
X+9957644Y+4058028D01*
X+9955000Y+4058000D01*
X+10018500Y+4185000D02*
X+10018283Y+4190247D01*
X+10016518Y+4200742D01*
X+10012826Y+4211237D01*
X+10006798Y+4221732D01*
X+9997576Y+4232112D01*
X+9987081Y+4239800D01*
X+9976586Y+4244718D01*
X+9966091Y+4247524D01*
X+9955596Y+4248497D01*
X+9955000Y+4248500D01*
X+9891500Y+4185000D02*
X+9891717Y+4190247D01*
X+9893482Y+4200742D01*
X+9897174Y+4211237D01*
X+9903202Y+4221732D01*
X+9912424Y+4232112D01*
X+9922919Y+4239800D01*
X+9933414Y+4244718D01*
X+9943909Y+4247524D01*
X+9954404Y+4248497D01*
X+9955000Y+4248500D01*
X+9891500Y+4185000D02*
X+9891717Y+4179753D01*
X+9893482Y+4169258D01*
X+9897174Y+4158763D01*
X+9903202Y+4148268D01*
X+9912424Y+4137888D01*
X+9922919Y+4130200D01*
X+9933414Y+4125282D01*
X+9943909Y+4122476D01*
X+9954404Y+4121503D01*
X+9955000Y+4121500D01*
X+10018500Y+4185000D02*
X+10018283Y+4179753D01*
X+10016518Y+4169258D01*
X+10012826Y+4158763D01*
X+10006798Y+4148268D01*
X+9997576Y+4137888D01*
X+9987081Y+4130200D01*
X+9976586Y+4125282D01*
X+9966091Y+4122476D01*
X+9955596Y+4121503D01*
X+9955000Y+4121500D01*
X+10115020Y+4367880D02*
X+10115020Y+4355180D01*
X+10101685Y+4342480D01*
X+10048345Y+4342480D01*
X+10035010Y+4355180D01*
X+10035010Y+4418680D01*
X+9981670Y+4393280D02*
X+9955000Y+4418680D01*
X+9955000Y+4342480D01*
X+9901660Y+4355180D02*
X+9901660Y+4405980D01*
X+9888325Y+4418680D01*
X+9834985Y+4418680D01*
X+9821650Y+4405980D01*
X+9821650Y+4355180D01*
X+9834985Y+4342480D01*
X+9888325Y+4342480D01*
X+9901660Y+4355180D01*
X+9901660Y+4342480D02*
X+9821650Y+4418680D01*
X+10322000Y+4195000D02*
X+10321573Y+4205409D01*
X+10318101Y+4226228D01*
X+10310845Y+4247047D01*
X+10299017Y+4267866D01*
X+10280920Y+4288524D01*
X+10260101Y+4304045D01*
X+10239282Y+4314030D01*
X+10218463Y+4319814D01*
X+10197644Y+4321972D01*
X+10195000Y+4322000D01*
X+10068000Y+4195000D02*
X+10068427Y+4205409D01*
X+10071899Y+4226228D01*
X+10079155Y+4247047D01*
X+10090983Y+4267866D01*
X+10109080Y+4288524D01*
X+10129899Y+4304045D01*
X+10150718Y+4314030D01*
X+10171537Y+4319814D01*
X+10192356Y+4321972D01*
X+10195000Y+4322000D01*
X+10068000Y+4195000D02*
X+10068427Y+4184591D01*
X+10071899Y+4163772D01*
X+10079155Y+4142953D01*
X+10090983Y+4122134D01*
X+10109080Y+4101476D01*
X+10129899Y+4085955D01*
X+10150718Y+4075970D01*
X+10171537Y+4070186D01*
X+10192356Y+4068028D01*
X+10195000Y+4068000D01*
X+10322000Y+4195000D02*
X+10321573Y+4184591D01*
X+10318101Y+4163772D01*
X+10310845Y+4142953D01*
X+10299017Y+4122134D01*
X+10280920Y+4101476D01*
X+10260101Y+4085955D01*
X+10239282Y+4075970D01*
X+10218463Y+4070186D01*
X+10197644Y+4068028D01*
X+10195000Y+4068000D01*
X+10258500Y+4195000D02*
X+10258283Y+4200247D01*
X+10256518Y+4210742D01*
X+10252826Y+4221237D01*
X+10246798Y+4231732D01*
X+10237576Y+4242112D01*
X+10227081Y+4249800D01*
X+10216586Y+4254718D01*
X+10206091Y+4257524D01*
X+10195596Y+4258497D01*
X+10195000Y+4258500D01*
X+10131500Y+4195000D02*
X+10131717Y+4200247D01*
X+10133482Y+4210742D01*
X+10137174Y+4221237D01*
X+10143202Y+4231732D01*
X+10152424Y+4242112D01*
X+10162919Y+4249800D01*
X+10173414Y+4254718D01*
X+10183909Y+4257524D01*
X+10194404Y+4258497D01*
X+10195000Y+4258500D01*
X+10131500Y+4195000D02*
X+10131717Y+4189753D01*
X+10133482Y+4179258D01*
X+10137174Y+4168763D01*
X+10143202Y+4158268D01*
X+10152424Y+4147888D01*
X+10162919Y+4140200D01*
X+10173414Y+4135282D01*
X+10183909Y+4132476D01*
X+10194404Y+4131503D01*
X+10195000Y+4131500D01*
X+10258500Y+4195000D02*
X+10258283Y+4189753D01*
X+10256518Y+4179258D01*
X+10252826Y+4168763D01*
X+10246798Y+4158268D01*
X+10237576Y+4147888D01*
X+10227081Y+4140200D01*
X+10216586Y+4135282D01*
X+10206091Y+4132476D01*
X+10195596Y+4131503D01*
X+10195000Y+4131500D01*
X+10369162Y+3981900D02*
X+10369162Y+3969200D01*
X+10355827Y+3956500D01*
X+10302487Y+3956500D01*
X+10289152Y+3969200D01*
X+10289152Y+4032700D01*
X+10235812Y+4007300D02*
X+10209142Y+4032700D01*
X+10209142Y+3956500D01*
X+10129132Y+4007300D02*
X+10102462Y+4032700D01*
X+10102462Y+3956500D01*
D72*
X+9695000Y+2185000D02*
X+10025000Y+2185000D01*
X+10025000Y+2575000D01*
X+9695000Y+2575000D01*
X+9695000Y+2185000D01*
D41*
X+11483284Y+5040147D02*
X+11539853Y+5096716D01*
D38*
X+11533687Y+4939681D02*
X+11479806Y+4885800D01*
X+11423230Y+4942375D01*
X+11421434Y+5016013D02*
X+11420536Y+5052832D01*
X+11366654Y+4998951D01*
D41*
X+11209853Y+5493284D02*
X+11153284Y+5549853D01*
D38*
X+11321414Y+5702453D02*
X+11311087Y+5702902D01*
X+11296270Y+5688085D01*
X+11297168Y+5667430D01*
X+11307944Y+5656654D01*
X+11328599Y+5655756D01*
X+11343416Y+5670573D01*
X+11342967Y+5680901D01*
X+11357335Y+5706045D02*
X+11377990Y+5705147D01*
X+11345661Y+5737476D01*
X+11402685Y+5729843D02*
X+11427381Y+5754539D01*
X+11421993Y+5759927D01*
X+11370356Y+5762172D01*
M02*
