G04 PROTEUS GERBER X2 FILE*
%TF.GenerationSoftware,Labcenter,Proteus,8.17-SP2-Build37159*%
%TF.CreationDate,2026-01-23T14:54:38+00:00*%
%TF.FileFunction,AssemblyDrawing,Top*%
%TF.FilePolarity,Positive*%
%TF.Part,Single*%
%TF.SameCoordinates,{c806fbc5-056e-4950-b10f-91aba8f6062f}*%
%FSLAX45Y45*%
%MOMM*%
G01*
%TA.AperFunction,Material*%
%ADD38C,0.101600*%
%ADD66C,1.219200*%
%ADD67C,0.195070*%
%ADD68C,0.050000*%
%ADD69C,1.016000*%
%ADD74C,0.497350*%
%ADD75C,0.568960*%
%ADD76C,0.197120*%
%ADD77C,0.914400*%
%ADD78C,0.295140*%
%ADD79C,0.183130*%
%ADD80C,0.711200*%
%ADD81C,0.117340*%
%ADD82C,0.812800*%
%ADD83C,0.179490*%
%ADD84C,0.448000*%
%ADD85C,0.200820*%
%ADD86C,0.177800*%
%ADD87C,0.171190*%
%ADD88C,0.162560*%
%ADD89C,0.609600*%
%ADD90C,0.138140*%
%ADD91C,0.269240*%
%TA.AperFunction,Profile*%
%ADD72C,0.101600*%
%TA.AperFunction,Material*%
%ADD92C,0.128010*%
%ADD93C,0.211400*%
%ADD94C,0.198480*%
%ADD95C,0.226060*%
%ADD96C,0.154940*%
%ADD97C,0.565200*%
%ADD98C,0.333580*%
%ADD99C,0.284480*%
%ADD100C,0.185250*%
%ADD101C,1.005790*%
%ADD102C,0.115920*%
%ADD103C,1.149470*%
%ADD104C,0.199280*%
%ADD105C,0.108540*%
%ADD106C,0.084660*%
%TD.AperFunction*%
D38*
X+478920Y+4935920D02*
X+1251080Y+4935920D01*
X+1251080Y+5962080D01*
X+478920Y+5962080D01*
X+478920Y+4935920D01*
D66*
X+865000Y+5195000D02*
X+865000Y+5195000D01*
D67*
X+689436Y+5589512D02*
X+689436Y+5570005D01*
X+711381Y+5550498D01*
X+799163Y+5550498D01*
X+821109Y+5570005D01*
X+821109Y+5667541D01*
X+886945Y+5648034D02*
X+908891Y+5667541D01*
X+974727Y+5667541D01*
X+996673Y+5648034D01*
X+996673Y+5628527D01*
X+974727Y+5609020D01*
X+996673Y+5589512D01*
X+996673Y+5570005D01*
X+974727Y+5550498D01*
X+908891Y+5550498D01*
X+886945Y+5570005D01*
X+930836Y+5609020D02*
X+974727Y+5609020D01*
D68*
X+482000Y+6127000D02*
X+482000Y+7147000D01*
X+2948000Y+7147000D01*
X+2948000Y+6127000D01*
X+482000Y+6127000D01*
D69*
X+623000Y+6637000D02*
X+623000Y+6637000D01*
D74*
X+1364534Y+6487794D02*
X+1364534Y+6786205D01*
X+1700246Y+6786205D01*
X+1364534Y+6637000D02*
X+1588342Y+6637000D01*
X+1924054Y+6686735D02*
X+2035958Y+6786205D01*
X+2035958Y+6487794D01*
D38*
X+2009920Y+5039920D02*
X+2320080Y+5039920D01*
X+2320080Y+5950080D01*
X+2009920Y+5950080D01*
X+2009920Y+5039920D01*
D75*
X+2115000Y+5745000D02*
X+2115000Y+5745000D01*
D76*
X+2105864Y+5112124D02*
X+2165000Y+5112124D01*
X+2224136Y+5178652D01*
X+2165000Y+5245180D01*
X+2105864Y+5245180D01*
X+2224136Y+5289532D02*
X+2105864Y+5289532D01*
X+2105864Y+5400412D01*
X+2125576Y+5422588D01*
X+2145288Y+5422588D01*
X+2165000Y+5400412D01*
X+2165000Y+5289532D01*
X+2165000Y+5400412D02*
X+2184712Y+5422588D01*
X+2224136Y+5422588D01*
X+2145288Y+5511292D02*
X+2105864Y+5555644D01*
X+2224136Y+5555644D01*
D38*
X+1353220Y+4463700D02*
X+1896780Y+4463700D01*
X+1896780Y+6089300D01*
X+1353220Y+6089300D01*
X+1353220Y+4463700D01*
D77*
X+1625000Y+5975000D02*
X+1625000Y+5975000D01*
D78*
X+1713545Y+4930857D02*
X+1536456Y+4930857D01*
X+1536456Y+5063673D01*
X+1595486Y+5130081D01*
X+1654515Y+5130081D01*
X+1713545Y+5063673D01*
X+1713545Y+4930857D01*
X+1536456Y+5395714D02*
X+1536456Y+5229694D01*
X+1595486Y+5229694D01*
X+1595486Y+5362510D01*
X+1625000Y+5395714D01*
X+1684030Y+5395714D01*
X+1713545Y+5362510D01*
X+1713545Y+5262898D01*
X+1684030Y+5229694D01*
D38*
X+2525300Y+4764700D02*
X+2802160Y+4764700D01*
X+2802160Y+6009300D01*
X+2525300Y+6009300D01*
X+2525300Y+4764700D01*
D77*
X+2665000Y+4879000D02*
X+2665000Y+4879000D01*
D79*
X+2718671Y+5302190D02*
X+2608790Y+5302190D01*
X+2608790Y+5384600D01*
X+2645417Y+5425805D01*
X+2682044Y+5425805D01*
X+2718671Y+5384600D01*
X+2718671Y+5302190D01*
X+2627104Y+5590625D02*
X+2608790Y+5570022D01*
X+2608790Y+5508215D01*
X+2627104Y+5487612D01*
X+2700357Y+5487612D01*
X+2718671Y+5508215D01*
X+2718671Y+5570022D01*
X+2700357Y+5590625D01*
X+2682044Y+5590625D01*
X+2663730Y+5570022D01*
X+2663730Y+5487612D01*
D38*
X+3656100Y+4790100D02*
X+3833900Y+4790100D01*
X+3833900Y+5983900D01*
X+3656100Y+5983900D01*
X+3656100Y+4790100D01*
D80*
X+3745000Y+4879000D02*
X+3745000Y+4879000D01*
D81*
X+3709796Y+5251207D02*
X+3709796Y+5304013D01*
X+3709796Y+5277610D02*
X+3780204Y+5277610D01*
X+3780204Y+5251207D02*
X+3780204Y+5304013D01*
X+3780204Y+5343618D02*
X+3709796Y+5343618D01*
X+3780204Y+5422827D01*
X+3709796Y+5422827D01*
X+3780204Y+5449230D02*
X+3709796Y+5449230D01*
X+3709796Y+5502036D01*
X+3733265Y+5528439D01*
X+3756735Y+5528439D01*
X+3780204Y+5502036D01*
X+3780204Y+5449230D01*
X+3733265Y+5581245D02*
X+3709796Y+5607648D01*
X+3780204Y+5607648D01*
D38*
X+4304920Y+6602920D02*
X+5077080Y+6602920D01*
X+5077080Y+6994080D01*
X+4304920Y+6994080D01*
X+4304920Y+6602920D01*
D82*
X+4437000Y+6735000D02*
X+4437000Y+6735000D01*
D83*
X+4615817Y+6852348D02*
X+4615817Y+6762601D01*
X+4636009Y+6744652D01*
X+4716781Y+6744652D01*
X+4736974Y+6762601D01*
X+4736974Y+6852348D01*
X+4898517Y+6780551D02*
X+4777360Y+6780551D01*
X+4858131Y+6852348D01*
X+4858131Y+6744652D01*
D68*
X+4475000Y+4945000D02*
X+4474914Y+4947076D01*
X+4474212Y+4951229D01*
X+4472742Y+4955382D01*
X+4470340Y+4959535D01*
X+4466667Y+4963634D01*
X+4462514Y+4966643D01*
X+4458361Y+4968560D01*
X+4454208Y+4969643D01*
X+4450055Y+4970000D01*
X+4450000Y+4970000D01*
X+4425000Y+4945000D02*
X+4425086Y+4947076D01*
X+4425788Y+4951229D01*
X+4427258Y+4955382D01*
X+4429660Y+4959535D01*
X+4433333Y+4963634D01*
X+4437486Y+4966643D01*
X+4441639Y+4968560D01*
X+4445792Y+4969643D01*
X+4449945Y+4970000D01*
X+4450000Y+4970000D01*
X+4425000Y+4945000D02*
X+4425086Y+4942924D01*
X+4425788Y+4938771D01*
X+4427258Y+4934618D01*
X+4429660Y+4930465D01*
X+4433333Y+4926366D01*
X+4437486Y+4923357D01*
X+4441639Y+4921440D01*
X+4445792Y+4920357D01*
X+4449945Y+4920000D01*
X+4450000Y+4920000D01*
X+4475000Y+4945000D02*
X+4474914Y+4942924D01*
X+4474212Y+4938771D01*
X+4472742Y+4934618D01*
X+4470340Y+4930465D01*
X+4466667Y+4926366D01*
X+4462514Y+4923357D01*
X+4458361Y+4921440D01*
X+4454208Y+4920357D01*
X+4450055Y+4920000D01*
X+4450000Y+4920000D01*
X+4485000Y+4945000D02*
X+4415000Y+4945000D01*
X+4450000Y+4980000D02*
X+4450000Y+4910000D01*
X+4110000Y+5285000D02*
X+4110000Y+4945000D01*
X+4116765Y+4875481D01*
X+4136230Y+4811191D01*
X+4167151Y+4753376D01*
X+4208281Y+4703281D01*
X+4258376Y+4662151D01*
X+4316191Y+4631230D01*
X+4380481Y+4611765D01*
X+4450000Y+4605000D01*
X+4519519Y+4611765D01*
X+4583809Y+4631230D01*
X+4641624Y+4662151D01*
X+4691719Y+4703281D01*
X+4732849Y+4753376D01*
X+4763770Y+4811191D01*
X+4783235Y+4875481D01*
X+4790000Y+4945000D01*
X+4783235Y+5014519D01*
X+4763770Y+5078809D01*
X+4732849Y+5136624D01*
X+4691719Y+5186719D01*
X+4641624Y+5227849D01*
X+4583809Y+5258770D01*
X+4519519Y+5278235D01*
X+4450000Y+5285000D01*
X+4110000Y+5285000D01*
D84*
X+4575000Y+4945000D02*
X+4575000Y+4945000D01*
D85*
X+4370214Y+4899815D02*
X+4390296Y+4877223D01*
X+4390296Y+4809446D01*
X+4350132Y+4764262D01*
X+4309968Y+4764262D01*
X+4269804Y+4809446D01*
X+4269804Y+4877223D01*
X+4289886Y+4899815D01*
X+4350132Y+5080553D02*
X+4350132Y+4945000D01*
X+4269804Y+5035369D01*
X+4390296Y+5035369D01*
D38*
X+3974920Y+5542920D02*
X+4747080Y+5542920D01*
X+4747080Y+5807080D01*
X+3974920Y+5807080D01*
X+3974920Y+5542920D01*
D80*
X+4107000Y+5675000D02*
X+4107000Y+5675000D01*
D86*
X+4404815Y+5639440D02*
X+4384812Y+5621660D01*
X+4324805Y+5621660D01*
X+4284800Y+5657220D01*
X+4284800Y+5692780D01*
X+4324805Y+5728340D01*
X+4384812Y+5728340D01*
X+4404815Y+5710560D01*
X+4464822Y+5710560D02*
X+4484825Y+5728340D01*
X+4544832Y+5728340D01*
X+4564835Y+5710560D01*
X+4564835Y+5692780D01*
X+4544832Y+5675000D01*
X+4564835Y+5657220D01*
X+4564835Y+5639440D01*
X+4544832Y+5621660D01*
X+4484825Y+5621660D01*
X+4464822Y+5639440D01*
X+4504827Y+5675000D02*
X+4544832Y+5675000D01*
D38*
X+4114700Y+6047840D02*
X+5359300Y+6047840D01*
X+5359300Y+6324700D01*
X+4114700Y+6324700D01*
X+4114700Y+6047840D01*
D77*
X+4229000Y+6185000D02*
X+4229000Y+6185000D01*
D79*
X+4652190Y+6131329D02*
X+4652190Y+6241210D01*
X+4734600Y+6241210D01*
X+4775805Y+6204583D01*
X+4775805Y+6167956D01*
X+4734600Y+6131329D01*
X+4652190Y+6131329D01*
X+4940625Y+6204583D02*
X+4920022Y+6186270D01*
X+4858215Y+6186270D01*
X+4837612Y+6204583D01*
X+4837612Y+6222896D01*
X+4858215Y+6241210D01*
X+4920022Y+6241210D01*
X+4940625Y+6222896D01*
X+4940625Y+6149643D01*
X+4920022Y+6131329D01*
X+4858215Y+6131329D01*
D38*
X+4752920Y+5542920D02*
X+5525080Y+5542920D01*
X+5525080Y+5807080D01*
X+4752920Y+5807080D01*
X+4752920Y+5542920D01*
D80*
X+5393000Y+5675000D02*
X+5393000Y+5675000D01*
D86*
X+5015175Y+5639440D02*
X+4995172Y+5621660D01*
X+4935165Y+5621660D01*
X+4895160Y+5657220D01*
X+4895160Y+5692780D01*
X+4935165Y+5728340D01*
X+4995172Y+5728340D01*
X+5015175Y+5710560D01*
X+5175195Y+5728340D02*
X+5075182Y+5728340D01*
X+5075182Y+5692780D01*
X+5155192Y+5692780D01*
X+5175195Y+5675000D01*
X+5175195Y+5639440D01*
X+5155192Y+5621660D01*
X+5095185Y+5621660D01*
X+5075182Y+5639440D01*
D68*
X+5295000Y+4945000D02*
X+5294914Y+4947076D01*
X+5294212Y+4951229D01*
X+5292742Y+4955382D01*
X+5290340Y+4959535D01*
X+5286667Y+4963634D01*
X+5282514Y+4966643D01*
X+5278361Y+4968560D01*
X+5274208Y+4969643D01*
X+5270055Y+4970000D01*
X+5270000Y+4970000D01*
X+5245000Y+4945000D02*
X+5245086Y+4947076D01*
X+5245788Y+4951229D01*
X+5247258Y+4955382D01*
X+5249660Y+4959535D01*
X+5253333Y+4963634D01*
X+5257486Y+4966643D01*
X+5261639Y+4968560D01*
X+5265792Y+4969643D01*
X+5269945Y+4970000D01*
X+5270000Y+4970000D01*
X+5245000Y+4945000D02*
X+5245086Y+4942924D01*
X+5245788Y+4938771D01*
X+5247258Y+4934618D01*
X+5249660Y+4930465D01*
X+5253333Y+4926366D01*
X+5257486Y+4923357D01*
X+5261639Y+4921440D01*
X+5265792Y+4920357D01*
X+5269945Y+4920000D01*
X+5270000Y+4920000D01*
X+5295000Y+4945000D02*
X+5294914Y+4942924D01*
X+5294212Y+4938771D01*
X+5292742Y+4934618D01*
X+5290340Y+4930465D01*
X+5286667Y+4926366D01*
X+5282514Y+4923357D01*
X+5278361Y+4921440D01*
X+5274208Y+4920357D01*
X+5270055Y+4920000D01*
X+5270000Y+4920000D01*
X+5235000Y+4945000D02*
X+5305000Y+4945000D01*
X+5270000Y+4910000D02*
X+5270000Y+4980000D01*
X+5610000Y+4605000D02*
X+5610000Y+4945000D01*
X+5603235Y+5014519D01*
X+5583770Y+5078809D01*
X+5552849Y+5136624D01*
X+5511719Y+5186719D01*
X+5461624Y+5227849D01*
X+5403809Y+5258770D01*
X+5339519Y+5278235D01*
X+5270000Y+5285000D01*
X+5200481Y+5278235D01*
X+5136191Y+5258770D01*
X+5078376Y+5227849D01*
X+5028281Y+5186719D01*
X+4987151Y+5136624D01*
X+4956230Y+5078809D01*
X+4936765Y+5014519D01*
X+4930000Y+4945000D01*
X+4936765Y+4875481D01*
X+4956230Y+4811191D01*
X+4987151Y+4753376D01*
X+5028281Y+4703281D01*
X+5078376Y+4662151D01*
X+5136191Y+4631230D01*
X+5200481Y+4611765D01*
X+5270000Y+4605000D01*
X+5610000Y+4605000D01*
D84*
X+5145000Y+4945000D02*
X+5145000Y+4945000D01*
D85*
X+5430114Y+4899815D02*
X+5450196Y+4877223D01*
X+5450196Y+4809446D01*
X+5410032Y+4764262D01*
X+5369868Y+4764262D01*
X+5329704Y+4809446D01*
X+5329704Y+4877223D01*
X+5349786Y+4899815D01*
X+5329704Y+4967592D02*
X+5329704Y+5080553D01*
X+5349786Y+5080553D01*
X+5450196Y+4967592D01*
D38*
X+5346100Y+6566100D02*
X+6539900Y+6566100D01*
X+6539900Y+6743900D01*
X+5346100Y+6743900D01*
X+5346100Y+6566100D01*
D80*
X+5435000Y+6655000D02*
X+5435000Y+6655000D01*
D81*
X+5807207Y+6690204D02*
X+5860013Y+6690204D01*
X+5833610Y+6690204D02*
X+5833610Y+6619796D01*
X+5807207Y+6619796D02*
X+5860013Y+6619796D01*
X+5899618Y+6619796D02*
X+5899618Y+6690204D01*
X+5978827Y+6619796D01*
X+5978827Y+6690204D01*
X+6005230Y+6619796D02*
X+6005230Y+6690204D01*
X+6058036Y+6690204D01*
X+6084439Y+6666735D01*
X+6084439Y+6643265D01*
X+6058036Y+6619796D01*
X+6005230Y+6619796D01*
X+6124043Y+6678469D02*
X+6137245Y+6690204D01*
X+6176849Y+6690204D01*
X+6190051Y+6678469D01*
X+6190051Y+6666735D01*
X+6176849Y+6655000D01*
X+6137245Y+6655000D01*
X+6124043Y+6643265D01*
X+6124043Y+6619796D01*
X+6190051Y+6619796D01*
D38*
X+5776100Y+4650100D02*
X+5953900Y+4650100D01*
X+5953900Y+5843900D01*
X+5776100Y+5843900D01*
X+5776100Y+4650100D01*
D80*
X+5865000Y+5755000D02*
X+5865000Y+5755000D01*
D81*
X+5900204Y+5026352D02*
X+5829796Y+5026352D01*
X+5829796Y+5092359D01*
X+5841531Y+5105561D01*
X+5853265Y+5105561D01*
X+5865000Y+5092359D01*
X+5865000Y+5026352D01*
X+5865000Y+5092359D02*
X+5876735Y+5105561D01*
X+5900204Y+5105561D01*
X+5841531Y+5145165D02*
X+5829796Y+5158367D01*
X+5829796Y+5197971D01*
X+5841531Y+5211173D01*
X+5853265Y+5211173D01*
X+5865000Y+5197971D01*
X+5865000Y+5158367D01*
X+5876735Y+5145165D01*
X+5900204Y+5145165D01*
X+5900204Y+5211173D01*
X+5829796Y+5250777D02*
X+5829796Y+5316785D01*
X+5841531Y+5316785D01*
X+5900204Y+5250777D01*
D38*
X+5685920Y+5918920D02*
X+6267580Y+5918920D01*
X+6267580Y+6500580D01*
X+5685920Y+6500580D01*
X+5685920Y+5918920D01*
D82*
X+5945000Y+6051000D02*
X+5945000Y+6051000D01*
D87*
X+5745636Y+6244751D02*
X+5745636Y+6347468D01*
X+5822674Y+6347468D01*
X+5861193Y+6313229D01*
X+5861193Y+6278990D01*
X+5822674Y+6244751D01*
X+5745636Y+6244751D01*
X+5938231Y+6313229D02*
X+5976750Y+6347468D01*
X+5976750Y+6244751D01*
X+6053788Y+6261870D02*
X+6053788Y+6330349D01*
X+6073047Y+6347468D01*
X+6150085Y+6347468D01*
X+6169345Y+6330349D01*
X+6169345Y+6261870D01*
X+6150085Y+6244751D01*
X+6073047Y+6244751D01*
X+6053788Y+6261870D01*
X+6053788Y+6244751D02*
X+6169345Y+6347468D01*
D38*
X+8293520Y+6530220D02*
X+9116480Y+6530220D01*
X+9116480Y+7086480D01*
X+8293520Y+7086480D01*
X+8293520Y+6530220D01*
D69*
X+8451000Y+6675000D02*
X+8451000Y+6675000D01*
D88*
X+8662836Y+6857118D02*
X+8662836Y+6775838D01*
X+8681124Y+6759582D01*
X+8754276Y+6759582D01*
X+8772564Y+6775838D01*
X+8772564Y+6857118D01*
X+8827428Y+6840862D02*
X+8845716Y+6857118D01*
X+8900580Y+6857118D01*
X+8918868Y+6840862D01*
X+8918868Y+6824606D01*
X+8900580Y+6808350D01*
X+8845716Y+6808350D01*
X+8827428Y+6792094D01*
X+8827428Y+6759582D01*
X+8918868Y+6759582D01*
D38*
X+8599920Y+5929920D02*
X+8810080Y+5929920D01*
X+8810080Y+6490080D01*
X+8599920Y+6490080D01*
X+8599920Y+5929920D01*
D89*
X+8705000Y+6035000D02*
X+8705000Y+6035000D01*
D90*
X+8746444Y+6091284D02*
X+8663557Y+6091284D01*
X+8663557Y+6168990D01*
X+8677371Y+6184532D01*
X+8691186Y+6184532D01*
X+8705000Y+6168990D01*
X+8705000Y+6091284D01*
X+8705000Y+6168990D02*
X+8718815Y+6184532D01*
X+8746444Y+6184532D01*
X+8691186Y+6246697D02*
X+8663557Y+6277780D01*
X+8746444Y+6277780D01*
X+8718815Y+6433194D02*
X+8718815Y+6339946D01*
X+8663557Y+6402111D01*
X+8746444Y+6402111D01*
D38*
X+8572920Y+5652920D02*
X+9345080Y+5652920D01*
X+9345080Y+5917080D01*
X+8572920Y+5917080D01*
X+8572920Y+5652920D01*
D80*
X+9213000Y+5785000D02*
X+9213000Y+5785000D01*
D86*
X+8835175Y+5749440D02*
X+8815172Y+5731660D01*
X+8755165Y+5731660D01*
X+8715160Y+5767220D01*
X+8715160Y+5802780D01*
X+8755165Y+5838340D01*
X+8815172Y+5838340D01*
X+8835175Y+5820560D01*
X+8895182Y+5820560D02*
X+8915185Y+5838340D01*
X+8975192Y+5838340D01*
X+8995195Y+5820560D01*
X+8995195Y+5802780D01*
X+8975192Y+5785000D01*
X+8915185Y+5785000D01*
X+8895182Y+5767220D01*
X+8895182Y+5731660D01*
X+8995195Y+5731660D01*
D38*
X+1213920Y+358920D02*
X+2494080Y+358920D01*
X+2494080Y+1004080D01*
X+1213920Y+1004080D01*
X+1213920Y+358920D01*
D69*
X+2235000Y+745000D02*
X+2235000Y+745000D01*
D91*
X+1456744Y+654576D02*
X+1456744Y+627652D01*
X+1487033Y+600728D01*
X+1608191Y+600728D01*
X+1638481Y+627652D01*
X+1638481Y+762272D01*
X+1729349Y+735348D02*
X+1759639Y+762272D01*
X+1850507Y+762272D01*
X+1880797Y+735348D01*
X+1880797Y+708424D01*
X+1850507Y+681500D01*
X+1759639Y+681500D01*
X+1729349Y+654576D01*
X+1729349Y+600728D01*
X+1880797Y+600728D01*
D38*
X+1936100Y+1710100D02*
X+2113900Y+1710100D01*
X+2113900Y+2903900D01*
X+1936100Y+2903900D01*
X+1936100Y+1710100D01*
D80*
X+2025000Y+2815000D02*
X+2025000Y+2815000D01*
D81*
X+2060204Y+2139158D02*
X+1989796Y+2139158D01*
X+1989796Y+2205165D01*
X+2001531Y+2218367D01*
X+2013265Y+2218367D01*
X+2025000Y+2205165D01*
X+2025000Y+2139158D01*
X+2025000Y+2205165D02*
X+2036735Y+2218367D01*
X+2060204Y+2218367D01*
X+2025000Y+2271173D02*
X+2013265Y+2257971D01*
X+2001531Y+2257971D01*
X+1989796Y+2271173D01*
X+1989796Y+2310777D01*
X+2001531Y+2323979D01*
X+2013265Y+2323979D01*
X+2025000Y+2310777D01*
X+2025000Y+2271173D01*
X+2036735Y+2257971D01*
X+2048469Y+2257971D01*
X+2060204Y+2271173D01*
X+2060204Y+2310777D01*
X+2048469Y+2323979D01*
X+2036735Y+2323979D01*
X+2025000Y+2310777D01*
D38*
X+916100Y+1960100D02*
X+1093900Y+1960100D01*
X+1093900Y+3153900D01*
X+916100Y+3153900D01*
X+916100Y+1960100D01*
D80*
X+1005000Y+3065000D02*
X+1005000Y+3065000D01*
D81*
X+1040204Y+2389158D02*
X+969796Y+2389158D01*
X+969796Y+2455165D01*
X+981531Y+2468367D01*
X+993265Y+2468367D01*
X+1005000Y+2455165D01*
X+1005000Y+2389158D01*
X+1005000Y+2455165D02*
X+1016735Y+2468367D01*
X+1040204Y+2468367D01*
X+981531Y+2573979D02*
X+969796Y+2560777D01*
X+969796Y+2521173D01*
X+981531Y+2507971D01*
X+1028469Y+2507971D01*
X+1040204Y+2521173D01*
X+1040204Y+2560777D01*
X+1028469Y+2573979D01*
X+1016735Y+2573979D01*
X+1005000Y+2560777D01*
X+1005000Y+2507971D01*
D38*
X+482920Y+2164920D02*
X+747080Y+2164920D01*
X+747080Y+2937080D01*
X+482920Y+2937080D01*
X+482920Y+2164920D01*
D80*
X+615000Y+2805000D02*
X+615000Y+2805000D01*
D86*
X+650560Y+2427175D02*
X+668340Y+2407172D01*
X+668340Y+2347165D01*
X+632780Y+2307160D01*
X+597220Y+2307160D01*
X+561660Y+2347165D01*
X+561660Y+2407172D01*
X+579440Y+2427175D01*
X+597220Y+2507185D02*
X+561660Y+2547190D01*
X+668340Y+2547190D01*
D38*
X+1257840Y+1924700D02*
X+1534700Y+1924700D01*
X+1534700Y+3169300D01*
X+1257840Y+3169300D01*
X+1257840Y+1924700D01*
D77*
X+1395000Y+3055000D02*
X+1395000Y+3055000D01*
D79*
X+1451211Y+2302170D02*
X+1341330Y+2302170D01*
X+1341330Y+2384580D01*
X+1377957Y+2425785D01*
X+1414584Y+2425785D01*
X+1451211Y+2384580D01*
X+1451211Y+2302170D01*
X+1359644Y+2487592D02*
X+1341330Y+2508195D01*
X+1341330Y+2570002D01*
X+1359644Y+2590605D01*
X+1377957Y+2590605D01*
X+1396270Y+2570002D01*
X+1414584Y+2590605D01*
X+1432897Y+2590605D01*
X+1451211Y+2570002D01*
X+1451211Y+2508195D01*
X+1432897Y+2487592D01*
X+1396270Y+2528797D02*
X+1396270Y+2570002D01*
D38*
X+544700Y+1475300D02*
X+1789300Y+1475300D01*
X+1789300Y+1752160D01*
X+544700Y+1752160D01*
X+544700Y+1475300D01*
D77*
X+1675000Y+1615000D02*
X+1675000Y+1615000D01*
D79*
X+922170Y+1558789D02*
X+922170Y+1668670D01*
X+1004580Y+1668670D01*
X+1045785Y+1632043D01*
X+1045785Y+1595416D01*
X+1004580Y+1558789D01*
X+922170Y+1558789D01*
X+1107592Y+1650356D02*
X+1128195Y+1668670D01*
X+1190002Y+1668670D01*
X+1210605Y+1650356D01*
X+1210605Y+1632043D01*
X+1190002Y+1613730D01*
X+1128195Y+1613730D01*
X+1107592Y+1595416D01*
X+1107592Y+1558789D01*
X+1210605Y+1558789D01*
D38*
X+2186100Y+2050100D02*
X+2363900Y+2050100D01*
X+2363900Y+3243900D01*
X+2186100Y+3243900D01*
X+2186100Y+2050100D01*
D80*
X+2275000Y+3155000D02*
X+2275000Y+3155000D01*
D81*
X+2310204Y+2426352D02*
X+2239796Y+2426352D01*
X+2239796Y+2492359D01*
X+2251531Y+2505561D01*
X+2263265Y+2505561D01*
X+2275000Y+2492359D01*
X+2275000Y+2426352D01*
X+2275000Y+2492359D02*
X+2286735Y+2505561D01*
X+2310204Y+2505561D01*
X+2251531Y+2545165D02*
X+2239796Y+2558367D01*
X+2239796Y+2597971D01*
X+2251531Y+2611173D01*
X+2263265Y+2611173D01*
X+2275000Y+2597971D01*
X+2275000Y+2558367D01*
X+2286735Y+2545165D01*
X+2310204Y+2545165D01*
X+2310204Y+2611173D01*
X+2251531Y+2650777D02*
X+2239796Y+2663979D01*
X+2239796Y+2703583D01*
X+2251531Y+2716785D01*
X+2263265Y+2716785D01*
X+2275000Y+2703583D01*
X+2275000Y+2663979D01*
X+2286735Y+2650777D01*
X+2310204Y+2650777D01*
X+2310204Y+2716785D01*
D38*
X+2406100Y+1590100D02*
X+2583900Y+1590100D01*
X+2583900Y+2783900D01*
X+2406100Y+2783900D01*
X+2406100Y+1590100D01*
D80*
X+2495000Y+2695000D02*
X+2495000Y+2695000D01*
D81*
X+2530204Y+2019158D02*
X+2459796Y+2019158D01*
X+2459796Y+2085165D01*
X+2471531Y+2098367D01*
X+2483265Y+2098367D01*
X+2495000Y+2085165D01*
X+2495000Y+2019158D01*
X+2495000Y+2085165D02*
X+2506735Y+2098367D01*
X+2530204Y+2098367D01*
X+2483265Y+2203979D02*
X+2495000Y+2190777D01*
X+2495000Y+2151173D01*
X+2483265Y+2137971D01*
X+2471531Y+2137971D01*
X+2459796Y+2151173D01*
X+2459796Y+2190777D01*
X+2471531Y+2203979D01*
X+2518469Y+2203979D01*
X+2530204Y+2190777D01*
X+2530204Y+2151173D01*
D38*
X+2617840Y+2160700D02*
X+2894700Y+2160700D01*
X+2894700Y+3405300D01*
X+2617840Y+3405300D01*
X+2617840Y+2160700D01*
D77*
X+2755000Y+3291000D02*
X+2755000Y+3291000D01*
D79*
X+2811211Y+2538170D02*
X+2701330Y+2538170D01*
X+2701330Y+2620580D01*
X+2737957Y+2661785D01*
X+2774584Y+2661785D01*
X+2811211Y+2620580D01*
X+2811211Y+2538170D01*
X+2774584Y+2826605D02*
X+2774584Y+2702990D01*
X+2701330Y+2785400D01*
X+2811211Y+2785400D01*
D72*
X+165000Y+145000D02*
X+12885004Y+145000D01*
X+12885004Y+7395000D01*
X+165000Y+7395000D01*
X+165000Y+145000D01*
D38*
X+5577920Y+368920D02*
X+6604080Y+368920D01*
X+6604080Y+1141080D01*
X+5577920Y+1141080D01*
X+5577920Y+368920D01*
D66*
X+6345000Y+755000D02*
X+6345000Y+755000D01*
D67*
X+5950488Y+579436D02*
X+5969995Y+579436D01*
X+5989502Y+601381D01*
X+5989502Y+689163D01*
X+5969995Y+711109D01*
X+5872459Y+711109D01*
X+5911473Y+798891D02*
X+5872459Y+842782D01*
X+5989502Y+842782D01*
D38*
X+5464700Y+1237840D02*
X+6709300Y+1237840D01*
X+6709300Y+1514700D01*
X+5464700Y+1514700D01*
X+5464700Y+1237840D01*
D77*
X+5579000Y+1375000D02*
X+5579000Y+1375000D01*
D79*
X+6002190Y+1321329D02*
X+6002190Y+1431210D01*
X+6084600Y+1431210D01*
X+6125805Y+1394583D01*
X+6125805Y+1357956D01*
X+6084600Y+1321329D01*
X+6002190Y+1321329D01*
X+6208215Y+1394583D02*
X+6249420Y+1431210D01*
X+6249420Y+1321329D01*
D38*
X+5510100Y+1916100D02*
X+6703900Y+1916100D01*
X+6703900Y+2093900D01*
X+5510100Y+2093900D01*
X+5510100Y+1916100D01*
D80*
X+6615000Y+2005000D02*
X+6615000Y+2005000D01*
D81*
X+5886352Y+1969796D02*
X+5886352Y+2040204D01*
X+5952359Y+2040204D01*
X+5965561Y+2028469D01*
X+5965561Y+2016735D01*
X+5952359Y+2005000D01*
X+5886352Y+2005000D01*
X+5952359Y+2005000D02*
X+5965561Y+1993265D01*
X+5965561Y+1969796D01*
X+6018367Y+2016735D02*
X+6044770Y+2040204D01*
X+6044770Y+1969796D01*
X+6110777Y+2028469D02*
X+6123979Y+2040204D01*
X+6163583Y+2040204D01*
X+6176785Y+2028469D01*
X+6176785Y+2016735D01*
X+6163583Y+2005000D01*
X+6123979Y+2005000D01*
X+6110777Y+1993265D01*
X+6110777Y+1969796D01*
X+6176785Y+1969796D01*
D38*
X+6746100Y+1376100D02*
X+6923900Y+1376100D01*
X+6923900Y+2569900D01*
X+6746100Y+2569900D01*
X+6746100Y+1376100D01*
D80*
X+6835000Y+1465000D02*
X+6835000Y+1465000D01*
D81*
X+6870204Y+1929618D02*
X+6799796Y+1929618D01*
X+6799796Y+1995625D01*
X+6811531Y+2008827D01*
X+6823265Y+2008827D01*
X+6835000Y+1995625D01*
X+6835000Y+1929618D01*
X+6835000Y+1995625D02*
X+6846735Y+2008827D01*
X+6870204Y+2008827D01*
X+6811531Y+2048431D02*
X+6799796Y+2061633D01*
X+6799796Y+2101237D01*
X+6811531Y+2114439D01*
X+6823265Y+2114439D01*
X+6835000Y+2101237D01*
X+6846735Y+2114439D01*
X+6858469Y+2114439D01*
X+6870204Y+2101237D01*
X+6870204Y+2061633D01*
X+6858469Y+2048431D01*
X+6835000Y+2074834D02*
X+6835000Y+2101237D01*
D38*
X+5652920Y+2589500D02*
X+6679080Y+2589500D01*
X+6679080Y+3478500D01*
X+5652920Y+3478500D01*
X+5652920Y+2589500D01*
D80*
X+5785000Y+2653000D02*
X+5785000Y+2653000D01*
D91*
X+5924295Y+3164098D02*
X+5924295Y+3029817D01*
X+5954508Y+3002961D01*
X+6075360Y+3002961D01*
X+6105573Y+3029817D01*
X+6105573Y+3164098D01*
X+6196213Y+3137242D02*
X+6226426Y+3164098D01*
X+6317065Y+3164098D01*
X+6347278Y+3137242D01*
X+6347278Y+3110386D01*
X+6317065Y+3083530D01*
X+6347278Y+3056673D01*
X+6347278Y+3029817D01*
X+6317065Y+3002961D01*
X+6226426Y+3002961D01*
X+6196213Y+3029817D01*
X+6256639Y+3083530D02*
X+6317065Y+3083530D01*
D38*
X+6528480Y+5250100D02*
X+6721520Y+5250100D01*
X+6721520Y+6443900D01*
X+6528480Y+6443900D01*
X+6528480Y+5250100D01*
D80*
X+6625000Y+5339000D02*
X+6625000Y+5339000D01*
D92*
X+6663404Y+5736411D02*
X+6586595Y+5736411D01*
X+6586595Y+5794017D01*
X+6612198Y+5822820D01*
X+6637801Y+5822820D01*
X+6663404Y+5794017D01*
X+6663404Y+5736411D01*
X+6612198Y+5880427D02*
X+6586595Y+5909230D01*
X+6663404Y+5909230D01*
X+6599397Y+5981238D02*
X+6586595Y+5995640D01*
X+6586595Y+6038845D01*
X+6599397Y+6053246D01*
X+6612198Y+6053246D01*
X+6625000Y+6038845D01*
X+6637801Y+6053246D01*
X+6650603Y+6053246D01*
X+6663404Y+6038845D01*
X+6663404Y+5995640D01*
X+6650603Y+5981238D01*
X+6625000Y+6010041D02*
X+6625000Y+6038845D01*
D38*
X+6238480Y+5250100D02*
X+6431520Y+5250100D01*
X+6431520Y+6443900D01*
X+6238480Y+6443900D01*
X+6238480Y+5250100D01*
D80*
X+6335000Y+6355000D02*
X+6335000Y+6355000D01*
D92*
X+6373404Y+5611951D02*
X+6296595Y+5611951D01*
X+6296595Y+5669557D01*
X+6322198Y+5698360D01*
X+6347801Y+5698360D01*
X+6373404Y+5669557D01*
X+6373404Y+5611951D01*
X+6322198Y+5755967D02*
X+6296595Y+5784770D01*
X+6373404Y+5784770D01*
X+6309397Y+5856778D02*
X+6296595Y+5871180D01*
X+6296595Y+5914385D01*
X+6309397Y+5928786D01*
X+6322198Y+5928786D01*
X+6335000Y+5914385D01*
X+6335000Y+5871180D01*
X+6347801Y+5856778D01*
X+6373404Y+5856778D01*
X+6373404Y+5928786D01*
D38*
X+6776100Y+5160100D02*
X+6953900Y+5160100D01*
X+6953900Y+6353900D01*
X+6776100Y+6353900D01*
X+6776100Y+5160100D01*
D80*
X+6865000Y+6265000D02*
X+6865000Y+6265000D01*
D81*
X+6900204Y+5536352D02*
X+6829796Y+5536352D01*
X+6829796Y+5602359D01*
X+6841531Y+5615561D01*
X+6853265Y+5615561D01*
X+6865000Y+5602359D01*
X+6865000Y+5536352D01*
X+6865000Y+5602359D02*
X+6876735Y+5615561D01*
X+6900204Y+5615561D01*
X+6841531Y+5655165D02*
X+6829796Y+5668367D01*
X+6829796Y+5707971D01*
X+6841531Y+5721173D01*
X+6853265Y+5721173D01*
X+6865000Y+5707971D01*
X+6865000Y+5668367D01*
X+6876735Y+5655165D01*
X+6900204Y+5655165D01*
X+6900204Y+5721173D01*
X+6865000Y+5773979D02*
X+6853265Y+5760777D01*
X+6841531Y+5760777D01*
X+6829796Y+5773979D01*
X+6829796Y+5813583D01*
X+6841531Y+5826785D01*
X+6853265Y+5826785D01*
X+6865000Y+5813583D01*
X+6865000Y+5773979D01*
X+6876735Y+5760777D01*
X+6888469Y+5760777D01*
X+6900204Y+5773979D01*
X+6900204Y+5813583D01*
X+6888469Y+5826785D01*
X+6876735Y+5826785D01*
X+6865000Y+5813583D01*
D38*
X+6044920Y+4912920D02*
X+6817080Y+4912920D01*
X+6817080Y+5177080D01*
X+6044920Y+5177080D01*
X+6044920Y+4912920D01*
D80*
X+6685000Y+5045000D02*
X+6685000Y+5045000D01*
D86*
X+6227165Y+5009440D02*
X+6207162Y+4991660D01*
X+6147155Y+4991660D01*
X+6107150Y+5027220D01*
X+6107150Y+5062780D01*
X+6147155Y+5098340D01*
X+6207162Y+5098340D01*
X+6227165Y+5080560D01*
X+6307175Y+5062780D02*
X+6347180Y+5098340D01*
X+6347180Y+4991660D01*
X+6447192Y+5080560D02*
X+6467195Y+5098340D01*
X+6527202Y+5098340D01*
X+6547205Y+5080560D01*
X+6547205Y+5062780D01*
X+6527202Y+5045000D01*
X+6547205Y+5027220D01*
X+6547205Y+5009440D01*
X+6527202Y+4991660D01*
X+6467195Y+4991660D01*
X+6447192Y+5009440D01*
X+6487197Y+5045000D02*
X+6527202Y+5045000D01*
D38*
X+5376100Y+2320100D02*
X+5553900Y+2320100D01*
X+5553900Y+3513900D01*
X+5376100Y+3513900D01*
X+5376100Y+2320100D01*
D80*
X+5465000Y+2409000D02*
X+5465000Y+2409000D01*
D81*
X+5500204Y+2820812D02*
X+5429796Y+2820812D01*
X+5429796Y+2886819D01*
X+5441531Y+2900021D01*
X+5453265Y+2900021D01*
X+5465000Y+2886819D01*
X+5465000Y+2820812D01*
X+5465000Y+2886819D02*
X+5476735Y+2900021D01*
X+5500204Y+2900021D01*
X+5453265Y+2952827D02*
X+5429796Y+2979230D01*
X+5500204Y+2979230D01*
X+5488469Y+3032036D02*
X+5441531Y+3032036D01*
X+5429796Y+3045237D01*
X+5429796Y+3098043D01*
X+5441531Y+3111245D01*
X+5488469Y+3111245D01*
X+5500204Y+3098043D01*
X+5500204Y+3045237D01*
X+5488469Y+3032036D01*
X+5500204Y+3032036D02*
X+5429796Y+3111245D01*
D38*
X+5506100Y+1636100D02*
X+6699900Y+1636100D01*
X+6699900Y+1813900D01*
X+5506100Y+1813900D01*
X+5506100Y+1636100D01*
D80*
X+5595000Y+1725000D02*
X+5595000Y+1725000D01*
D81*
X+6059618Y+1689796D02*
X+6059618Y+1760204D01*
X+6125625Y+1760204D01*
X+6138827Y+1748469D01*
X+6138827Y+1736735D01*
X+6125625Y+1725000D01*
X+6059618Y+1725000D01*
X+6125625Y+1725000D02*
X+6138827Y+1713265D01*
X+6138827Y+1689796D01*
X+6244439Y+1760204D02*
X+6178431Y+1760204D01*
X+6178431Y+1736735D01*
X+6231237Y+1736735D01*
X+6244439Y+1725000D01*
X+6244439Y+1701531D01*
X+6231237Y+1689796D01*
X+6191633Y+1689796D01*
X+6178431Y+1701531D01*
D38*
X+5376100Y+3656100D02*
X+6569900Y+3656100D01*
X+6569900Y+3833900D01*
X+5376100Y+3833900D01*
X+5376100Y+3656100D01*
D80*
X+6481000Y+3745000D02*
X+6481000Y+3745000D01*
D81*
X+5752352Y+3709796D02*
X+5752352Y+3780204D01*
X+5818359Y+3780204D01*
X+5831561Y+3768469D01*
X+5831561Y+3756735D01*
X+5818359Y+3745000D01*
X+5752352Y+3745000D01*
X+5818359Y+3745000D02*
X+5831561Y+3733265D01*
X+5831561Y+3709796D01*
X+5871165Y+3768469D02*
X+5884367Y+3780204D01*
X+5923971Y+3780204D01*
X+5937173Y+3768469D01*
X+5937173Y+3756735D01*
X+5923971Y+3745000D01*
X+5884367Y+3745000D01*
X+5871165Y+3733265D01*
X+5871165Y+3709796D01*
X+5937173Y+3709796D01*
X+6042785Y+3780204D02*
X+5976777Y+3780204D01*
X+5976777Y+3756735D01*
X+6029583Y+3756735D01*
X+6042785Y+3745000D01*
X+6042785Y+3721531D01*
X+6029583Y+3709796D01*
X+5989979Y+3709796D01*
X+5976777Y+3721531D01*
D38*
X+7368480Y+5256100D02*
X+7561520Y+5256100D01*
X+7561520Y+6449900D01*
X+7368480Y+6449900D01*
X+7368480Y+5256100D01*
D80*
X+7465000Y+5345000D02*
X+7465000Y+5345000D01*
D92*
X+7503404Y+5742411D02*
X+7426595Y+5742411D01*
X+7426595Y+5800017D01*
X+7452198Y+5828820D01*
X+7477801Y+5828820D01*
X+7503404Y+5800017D01*
X+7503404Y+5742411D01*
X+7452198Y+5886427D02*
X+7426595Y+5915230D01*
X+7503404Y+5915230D01*
X+7439397Y+6059246D02*
X+7426595Y+6044845D01*
X+7426595Y+6001640D01*
X+7439397Y+5987238D01*
X+7490603Y+5987238D01*
X+7503404Y+6001640D01*
X+7503404Y+6044845D01*
X+7490603Y+6059246D01*
X+7477801Y+6059246D01*
X+7465000Y+6044845D01*
X+7465000Y+5987238D01*
D38*
X+7068480Y+5246100D02*
X+7261520Y+5246100D01*
X+7261520Y+6439900D01*
X+7068480Y+6439900D01*
X+7068480Y+5246100D01*
D80*
X+7165000Y+6351000D02*
X+7165000Y+6351000D01*
D92*
X+7203404Y+5607951D02*
X+7126595Y+5607951D01*
X+7126595Y+5665557D01*
X+7152198Y+5694360D01*
X+7177801Y+5694360D01*
X+7203404Y+5665557D01*
X+7203404Y+5607951D01*
X+7152198Y+5751967D02*
X+7126595Y+5780770D01*
X+7203404Y+5780770D01*
X+7126595Y+5924786D02*
X+7126595Y+5852778D01*
X+7152198Y+5852778D01*
X+7152198Y+5910385D01*
X+7165000Y+5924786D01*
X+7190603Y+5924786D01*
X+7203404Y+5910385D01*
X+7203404Y+5867180D01*
X+7190603Y+5852778D01*
D38*
X+6932920Y+4902920D02*
X+7705080Y+4902920D01*
X+7705080Y+5167080D01*
X+6932920Y+5167080D01*
X+6932920Y+4902920D01*
D80*
X+7573000Y+5035000D02*
X+7573000Y+5035000D01*
D86*
X+7115165Y+4999440D02*
X+7095162Y+4981660D01*
X+7035155Y+4981660D01*
X+6995150Y+5017220D01*
X+6995150Y+5052780D01*
X+7035155Y+5088340D01*
X+7095162Y+5088340D01*
X+7115165Y+5070560D01*
X+7195175Y+5052780D02*
X+7235180Y+5088340D01*
X+7235180Y+4981660D01*
X+7435205Y+5017220D02*
X+7315190Y+5017220D01*
X+7395200Y+5088340D01*
X+7395200Y+4981660D01*
D38*
X+7616100Y+5160100D02*
X+7793900Y+5160100D01*
X+7793900Y+6353900D01*
X+7616100Y+6353900D01*
X+7616100Y+5160100D01*
D80*
X+7705000Y+6265000D02*
X+7705000Y+6265000D01*
D81*
X+7740204Y+5536352D02*
X+7669796Y+5536352D01*
X+7669796Y+5602359D01*
X+7681531Y+5615561D01*
X+7693265Y+5615561D01*
X+7705000Y+5602359D01*
X+7705000Y+5536352D01*
X+7705000Y+5602359D02*
X+7716735Y+5615561D01*
X+7740204Y+5615561D01*
X+7681531Y+5655165D02*
X+7669796Y+5668367D01*
X+7669796Y+5707971D01*
X+7681531Y+5721173D01*
X+7693265Y+5721173D01*
X+7705000Y+5707971D01*
X+7705000Y+5668367D01*
X+7716735Y+5655165D01*
X+7740204Y+5655165D01*
X+7740204Y+5721173D01*
X+7693265Y+5826785D02*
X+7705000Y+5813583D01*
X+7705000Y+5773979D01*
X+7693265Y+5760777D01*
X+7681531Y+5760777D01*
X+7669796Y+5773979D01*
X+7669796Y+5813583D01*
X+7681531Y+5826785D01*
X+7728469Y+5826785D01*
X+7740204Y+5813583D01*
X+7740204Y+5773979D01*
D68*
X+10709000Y+3346000D02*
X+11234000Y+3346000D01*
X+11234000Y+2256000D01*
X+10709000Y+2256000D01*
X+10709000Y+3346000D01*
D69*
X+10925000Y+3055000D02*
X+10925000Y+3055000D01*
D93*
X+11034920Y+2343460D02*
X+10908080Y+2343460D01*
X+10908080Y+2438590D01*
X+10950360Y+2486155D01*
X+10992640Y+2486155D01*
X+11034920Y+2438590D01*
X+11034920Y+2343460D01*
X+10950360Y+2581285D02*
X+10908080Y+2628850D01*
X+11034920Y+2628850D01*
X+10908080Y+2747762D02*
X+10908080Y+2866675D01*
X+10929220Y+2866675D01*
X+11034920Y+2747762D01*
D38*
X+10429920Y+2739920D02*
X+10640080Y+2739920D01*
X+10640080Y+3300080D01*
X+10429920Y+3300080D01*
X+10429920Y+2739920D01*
D89*
X+10535000Y+3195000D02*
X+10535000Y+3195000D01*
D90*
X+10576444Y+2765724D02*
X+10493557Y+2765724D01*
X+10493557Y+2843430D01*
X+10507371Y+2858972D01*
X+10521186Y+2858972D01*
X+10535000Y+2843430D01*
X+10535000Y+2765724D01*
X+10535000Y+2843430D02*
X+10548815Y+2858972D01*
X+10576444Y+2858972D01*
X+10507371Y+2905596D02*
X+10493557Y+2921137D01*
X+10493557Y+2967761D01*
X+10507371Y+2983303D01*
X+10521186Y+2983303D01*
X+10535000Y+2967761D01*
X+10548815Y+2983303D01*
X+10562630Y+2983303D01*
X+10576444Y+2967761D01*
X+10576444Y+2921137D01*
X+10562630Y+2905596D01*
X+10535000Y+2936679D02*
X+10535000Y+2967761D01*
X+10521186Y+3045468D02*
X+10493557Y+3076551D01*
X+10576444Y+3076551D01*
D38*
X+11456100Y+3636100D02*
X+11633900Y+3636100D01*
X+11633900Y+4829900D01*
X+11456100Y+4829900D01*
X+11456100Y+3636100D01*
D80*
X+11545000Y+4741000D02*
X+11545000Y+4741000D01*
D81*
X+11580204Y+4012352D02*
X+11509796Y+4012352D01*
X+11509796Y+4078359D01*
X+11521531Y+4091561D01*
X+11533265Y+4091561D01*
X+11545000Y+4078359D01*
X+11545000Y+4012352D01*
X+11545000Y+4078359D02*
X+11556735Y+4091561D01*
X+11580204Y+4091561D01*
X+11521531Y+4131165D02*
X+11509796Y+4144367D01*
X+11509796Y+4183971D01*
X+11521531Y+4197173D01*
X+11533265Y+4197173D01*
X+11545000Y+4183971D01*
X+11556735Y+4197173D01*
X+11568469Y+4197173D01*
X+11580204Y+4183971D01*
X+11580204Y+4144367D01*
X+11568469Y+4131165D01*
X+11545000Y+4157568D02*
X+11545000Y+4183971D01*
X+11568469Y+4223576D02*
X+11521531Y+4223576D01*
X+11509796Y+4236777D01*
X+11509796Y+4289583D01*
X+11521531Y+4302785D01*
X+11568469Y+4302785D01*
X+11580204Y+4289583D01*
X+11580204Y+4236777D01*
X+11568469Y+4223576D01*
X+11580204Y+4223576D02*
X+11509796Y+4302785D01*
D68*
X+9390000Y+3321000D02*
X+10322000Y+3321000D01*
X+10322000Y+2541000D01*
X+9390000Y+2541000D01*
X+9390000Y+3321000D01*
D80*
X+9475000Y+3185000D02*
X+9475000Y+3185000D01*
D94*
X+9738898Y+2990544D02*
X+9738898Y+2891304D01*
X+9761227Y+2871456D01*
X+9850543Y+2871456D01*
X+9872872Y+2891304D01*
X+9872872Y+2990544D01*
X+9939859Y+2990544D02*
X+10051504Y+2990544D01*
X+10051504Y+2970696D01*
X+9939859Y+2871456D01*
D72*
X+9695000Y+2565000D02*
X+10025000Y+2565000D01*
X+10025000Y+3275000D01*
X+9695000Y+3275000D01*
X+9695000Y+2565000D01*
X+1265000Y+6165000D02*
X+1370000Y+6165000D01*
X+1370000Y+7295000D01*
X+1265000Y+7295000D01*
X+1265000Y+6165000D01*
D38*
X+8116100Y+2606100D02*
X+8293900Y+2606100D01*
X+8293900Y+3799900D01*
X+8116100Y+3799900D01*
X+8116100Y+2606100D01*
D80*
X+8205000Y+3711000D02*
X+8205000Y+3711000D01*
D81*
X+8240204Y+2982352D02*
X+8169796Y+2982352D01*
X+8169796Y+3048359D01*
X+8181531Y+3061561D01*
X+8193265Y+3061561D01*
X+8205000Y+3048359D01*
X+8205000Y+2982352D01*
X+8205000Y+3048359D02*
X+8216735Y+3061561D01*
X+8240204Y+3061561D01*
X+8181531Y+3101165D02*
X+8169796Y+3114367D01*
X+8169796Y+3153971D01*
X+8181531Y+3167173D01*
X+8193265Y+3167173D01*
X+8205000Y+3153971D01*
X+8216735Y+3167173D01*
X+8228469Y+3167173D01*
X+8240204Y+3153971D01*
X+8240204Y+3114367D01*
X+8228469Y+3101165D01*
X+8205000Y+3127568D02*
X+8205000Y+3153971D01*
X+8181531Y+3272785D02*
X+8169796Y+3259583D01*
X+8169796Y+3219979D01*
X+8181531Y+3206777D01*
X+8228469Y+3206777D01*
X+8240204Y+3219979D01*
X+8240204Y+3259583D01*
X+8228469Y+3272785D01*
X+8216735Y+3272785D01*
X+8205000Y+3259583D01*
X+8205000Y+3206777D01*
D38*
X+7398920Y+1861500D02*
X+7917080Y+1861500D01*
X+7917080Y+2750500D01*
X+7398920Y+2750500D01*
X+7398920Y+1861500D01*
D80*
X+7785000Y+2687000D02*
X+7785000Y+2687000D01*
D95*
X+7590182Y+2053016D02*
X+7703212Y+2053016D01*
X+7725818Y+2078447D01*
X+7725818Y+2180174D01*
X+7703212Y+2205606D01*
X+7590182Y+2205606D01*
X+7658000Y+2307333D02*
X+7635394Y+2281901D01*
X+7612788Y+2281901D01*
X+7590182Y+2307333D01*
X+7590182Y+2383628D01*
X+7612788Y+2409060D01*
X+7635394Y+2409060D01*
X+7658000Y+2383628D01*
X+7658000Y+2307333D01*
X+7680606Y+2281901D01*
X+7703212Y+2281901D01*
X+7725818Y+2307333D01*
X+7725818Y+2383628D01*
X+7703212Y+2409060D01*
X+7680606Y+2409060D01*
X+7658000Y+2383628D01*
D38*
X+7109920Y+1739920D02*
X+7320080Y+1739920D01*
X+7320080Y+2300080D01*
X+7109920Y+2300080D01*
X+7109920Y+1739920D01*
D89*
X+7215000Y+1845000D02*
X+7215000Y+1845000D01*
D90*
X+7256444Y+1901284D02*
X+7173557Y+1901284D01*
X+7173557Y+1978990D01*
X+7187371Y+1994532D01*
X+7201186Y+1994532D01*
X+7215000Y+1978990D01*
X+7215000Y+1901284D01*
X+7215000Y+1978990D02*
X+7228815Y+1994532D01*
X+7256444Y+1994532D01*
X+7187371Y+2041156D02*
X+7173557Y+2056697D01*
X+7173557Y+2103321D01*
X+7187371Y+2118863D01*
X+7201186Y+2118863D01*
X+7215000Y+2103321D01*
X+7228815Y+2118863D01*
X+7242630Y+2118863D01*
X+7256444Y+2103321D01*
X+7256444Y+2056697D01*
X+7242630Y+2041156D01*
X+7215000Y+2072239D02*
X+7215000Y+2103321D01*
X+7173557Y+2243194D02*
X+7173557Y+2165487D01*
X+7201186Y+2165487D01*
X+7201186Y+2227652D01*
X+7215000Y+2243194D01*
X+7242630Y+2243194D01*
X+7256444Y+2227652D01*
X+7256444Y+2181028D01*
X+7242630Y+2165487D01*
D38*
X+6979920Y+1519920D02*
X+7540080Y+1519920D01*
X+7540080Y+1730080D01*
X+6979920Y+1730080D01*
X+6979920Y+1519920D01*
D89*
X+7435000Y+1625000D02*
X+7435000Y+1625000D01*
D90*
X+7005724Y+1583556D02*
X+7005724Y+1666443D01*
X+7083430Y+1666443D01*
X+7098972Y+1652629D01*
X+7098972Y+1638814D01*
X+7083430Y+1625000D01*
X+7005724Y+1625000D01*
X+7083430Y+1625000D02*
X+7098972Y+1611185D01*
X+7098972Y+1583556D01*
X+7145596Y+1652629D02*
X+7161137Y+1666443D01*
X+7207761Y+1666443D01*
X+7223303Y+1652629D01*
X+7223303Y+1638814D01*
X+7207761Y+1625000D01*
X+7223303Y+1611185D01*
X+7223303Y+1597370D01*
X+7207761Y+1583556D01*
X+7161137Y+1583556D01*
X+7145596Y+1597370D01*
X+7176679Y+1625000D02*
X+7207761Y+1625000D01*
X+7269927Y+1652629D02*
X+7285468Y+1666443D01*
X+7332092Y+1666443D01*
X+7347634Y+1652629D01*
X+7347634Y+1638814D01*
X+7332092Y+1625000D01*
X+7347634Y+1611185D01*
X+7347634Y+1597370D01*
X+7332092Y+1583556D01*
X+7285468Y+1583556D01*
X+7269927Y+1597370D01*
X+7301010Y+1625000D02*
X+7332092Y+1625000D01*
D38*
X+6945420Y+3051920D02*
X+7527080Y+3051920D01*
X+7527080Y+3633580D01*
X+6945420Y+3633580D01*
X+6945420Y+3051920D01*
D82*
X+7395000Y+3311000D02*
X+7395000Y+3311000D01*
D87*
X+7201249Y+3111636D02*
X+7098532Y+3111636D01*
X+7098532Y+3188674D01*
X+7132771Y+3227193D01*
X+7167010Y+3227193D01*
X+7201249Y+3188674D01*
X+7201249Y+3111636D01*
X+7132771Y+3304231D02*
X+7098532Y+3342750D01*
X+7201249Y+3342750D01*
X+7149890Y+3458307D02*
X+7132771Y+3439047D01*
X+7115651Y+3439047D01*
X+7098532Y+3458307D01*
X+7098532Y+3516085D01*
X+7115651Y+3535345D01*
X+7132771Y+3535345D01*
X+7149890Y+3516085D01*
X+7149890Y+3458307D01*
X+7167010Y+3439047D01*
X+7184130Y+3439047D01*
X+7201249Y+3458307D01*
X+7201249Y+3516085D01*
X+7184130Y+3535345D01*
X+7167010Y+3535345D01*
X+7149890Y+3516085D01*
D38*
X+6950100Y+1226100D02*
X+8143900Y+1226100D01*
X+8143900Y+1403900D01*
X+6950100Y+1403900D01*
X+6950100Y+1226100D01*
D80*
X+7039000Y+1315000D02*
X+7039000Y+1315000D01*
D81*
X+7450812Y+1279796D02*
X+7450812Y+1350204D01*
X+7516819Y+1350204D01*
X+7530021Y+1338469D01*
X+7530021Y+1326735D01*
X+7516819Y+1315000D01*
X+7450812Y+1315000D01*
X+7516819Y+1315000D02*
X+7530021Y+1303265D01*
X+7530021Y+1279796D01*
X+7569625Y+1338469D02*
X+7582827Y+1350204D01*
X+7622431Y+1350204D01*
X+7635633Y+1338469D01*
X+7635633Y+1326735D01*
X+7622431Y+1315000D01*
X+7635633Y+1303265D01*
X+7635633Y+1291531D01*
X+7622431Y+1279796D01*
X+7582827Y+1279796D01*
X+7569625Y+1291531D01*
X+7596028Y+1315000D02*
X+7622431Y+1315000D01*
X+7741245Y+1303265D02*
X+7662036Y+1303265D01*
X+7714842Y+1350204D01*
X+7714842Y+1279796D01*
D38*
X+7072920Y+922920D02*
X+7845080Y+922920D01*
X+7845080Y+1187080D01*
X+7072920Y+1187080D01*
X+7072920Y+922920D01*
D80*
X+7205000Y+1055000D02*
X+7205000Y+1055000D01*
D86*
X+7422805Y+1019440D02*
X+7402802Y+1001660D01*
X+7342795Y+1001660D01*
X+7302790Y+1037220D01*
X+7302790Y+1072780D01*
X+7342795Y+1108340D01*
X+7402802Y+1108340D01*
X+7422805Y+1090560D01*
X+7502815Y+1072780D02*
X+7542820Y+1108340D01*
X+7542820Y+1001660D01*
X+7742845Y+1108340D02*
X+7642832Y+1108340D01*
X+7642832Y+1072780D01*
X+7722842Y+1072780D01*
X+7742845Y+1055000D01*
X+7742845Y+1019440D01*
X+7722842Y+1001660D01*
X+7662835Y+1001660D01*
X+7642832Y+1019440D01*
D38*
X+7085620Y+541861D02*
X+7730780Y+541861D01*
X+7730780Y+806021D01*
X+7085620Y+806021D01*
X+7085620Y+541861D01*
D69*
X+7611400Y+673941D02*
X+7611400Y+673941D01*
D96*
X+7183664Y+689435D02*
X+7218525Y+720423D01*
X+7253387Y+720423D01*
X+7288248Y+689435D01*
X+7288248Y+658447D01*
X+7253387Y+627459D01*
X+7218525Y+627459D01*
X+7183664Y+658447D01*
X+7183664Y+689435D01*
X+7253387Y+658447D02*
X+7288248Y+627459D01*
X+7357971Y+689435D02*
X+7392833Y+720423D01*
X+7392833Y+627459D01*
D38*
X+8316100Y+2196100D02*
X+8493900Y+2196100D01*
X+8493900Y+3389900D01*
X+8316100Y+3389900D01*
X+8316100Y+2196100D01*
D80*
X+8405000Y+2285000D02*
X+8405000Y+2285000D01*
D81*
X+8440204Y+2696812D02*
X+8369796Y+2696812D01*
X+8369796Y+2762819D01*
X+8381531Y+2776021D01*
X+8393265Y+2776021D01*
X+8405000Y+2762819D01*
X+8405000Y+2696812D01*
X+8405000Y+2762819D02*
X+8416735Y+2776021D01*
X+8440204Y+2776021D01*
X+8381531Y+2815625D02*
X+8369796Y+2828827D01*
X+8369796Y+2868431D01*
X+8381531Y+2881633D01*
X+8393265Y+2881633D01*
X+8405000Y+2868431D01*
X+8416735Y+2881633D01*
X+8428469Y+2881633D01*
X+8440204Y+2868431D01*
X+8440204Y+2828827D01*
X+8428469Y+2815625D01*
X+8405000Y+2842028D02*
X+8405000Y+2868431D01*
X+8381531Y+2921237D02*
X+8369796Y+2934439D01*
X+8369796Y+2974043D01*
X+8381531Y+2987245D01*
X+8393265Y+2987245D01*
X+8405000Y+2974043D01*
X+8405000Y+2934439D01*
X+8416735Y+2921237D01*
X+8440204Y+2921237D01*
X+8440204Y+2987245D01*
D38*
X+8217840Y+634700D02*
X+8494700Y+634700D01*
X+8494700Y+1879300D01*
X+8217840Y+1879300D01*
X+8217840Y+634700D01*
D77*
X+8355000Y+1765000D02*
X+8355000Y+1765000D01*
D79*
X+8411211Y+929760D02*
X+8301330Y+929760D01*
X+8301330Y+1012170D01*
X+8337957Y+1053375D01*
X+8374584Y+1053375D01*
X+8411211Y+1012170D01*
X+8411211Y+929760D01*
X+8337957Y+1135785D02*
X+8301330Y+1176990D01*
X+8411211Y+1176990D01*
X+8337957Y+1383015D02*
X+8356270Y+1362412D01*
X+8356270Y+1300605D01*
X+8337957Y+1280002D01*
X+8319644Y+1280002D01*
X+8301330Y+1300605D01*
X+8301330Y+1362412D01*
X+8319644Y+1383015D01*
X+8392897Y+1383015D01*
X+8411211Y+1362412D01*
X+8411211Y+1300605D01*
D38*
X+8759920Y+450920D02*
X+11020080Y+450920D01*
X+11020080Y+2101080D01*
X+8759920Y+2101080D01*
X+8759920Y+450920D01*
D97*
X+9126980Y+1106440D02*
X+9126980Y+1445560D01*
X+9444905Y+1445560D01*
X+9508490Y+1389040D01*
X+9508490Y+1332520D01*
X+9444905Y+1276000D01*
X+9126980Y+1276000D01*
X+9444905Y+1276000D02*
X+9508490Y+1219480D01*
X+9508490Y+1106440D01*
X+9635660Y+1445560D02*
X+9635660Y+1106440D01*
X+10017170Y+1106440D01*
X+10271510Y+1332520D02*
X+10398680Y+1445560D01*
X+10398680Y+1106440D01*
D72*
X+9405000Y+2105000D02*
X+9405000Y+1595000D01*
X+9245000Y+1495000D01*
X+8905000Y+1495000D01*
X+8765000Y+1385000D01*
X+8765000Y+1105000D01*
X+8905000Y+1025000D01*
X+9245000Y+1025000D01*
X+9395000Y+935000D01*
X+9395000Y+465000D01*
X+9425000Y+465000D01*
X+9425000Y+955000D01*
X+9245000Y+1065000D01*
X+8905000Y+1065000D01*
X+8805000Y+1125000D01*
X+8805000Y+1365000D01*
X+8915000Y+1455000D01*
X+9265000Y+1455000D01*
X+9445000Y+1575000D01*
X+9445000Y+2105000D01*
X+9405000Y+2105000D01*
D38*
X+11898920Y+450300D02*
X+12671080Y+450300D01*
X+12671080Y+1984460D01*
X+11898920Y+1984460D01*
X+11898920Y+450300D01*
D66*
X+12285000Y+1725380D02*
X+12285000Y+1725380D01*
D98*
X+12318359Y+607020D02*
X+12351718Y+607020D01*
X+12385076Y+644548D01*
X+12385076Y+794661D01*
X+12351718Y+832190D01*
X+12184925Y+832190D01*
X+12251642Y+982303D02*
X+12184925Y+1057360D01*
X+12385076Y+1057360D01*
X+12218283Y+1245002D02*
X+12184925Y+1282530D01*
X+12184925Y+1395115D01*
X+12218283Y+1432644D01*
X+12251642Y+1432644D01*
X+12285000Y+1395115D01*
X+12318359Y+1432644D01*
X+12351718Y+1432644D01*
X+12385076Y+1395115D01*
X+12385076Y+1282530D01*
X+12351718Y+1245002D01*
X+12285000Y+1320059D02*
X+12285000Y+1395115D01*
D38*
X+11055920Y+352920D02*
X+11574080Y+352920D01*
X+11574080Y+1633080D01*
X+11055920Y+1633080D01*
X+11055920Y+352920D01*
D82*
X+11315000Y+1501000D02*
X+11315000Y+1501000D01*
D99*
X+11371896Y+714616D02*
X+11400344Y+682612D01*
X+11400344Y+586600D01*
X+11343448Y+522592D01*
X+11286552Y+522592D01*
X+11229656Y+586600D01*
X+11229656Y+682612D01*
X+11258104Y+714616D01*
X+11286552Y+842632D02*
X+11229656Y+906640D01*
X+11400344Y+906640D01*
X+11258104Y+1226680D02*
X+11229656Y+1194676D01*
X+11229656Y+1098664D01*
X+11258104Y+1066660D01*
X+11371896Y+1066660D01*
X+11400344Y+1098664D01*
X+11400344Y+1194676D01*
X+11371896Y+1226680D01*
X+11343448Y+1226680D01*
X+11315000Y+1194676D01*
X+11315000Y+1066660D01*
D38*
X+11609920Y+1059920D02*
X+11820080Y+1059920D01*
X+11820080Y+1620080D01*
X+11609920Y+1620080D01*
X+11609920Y+1059920D01*
D89*
X+11715000Y+1165000D02*
X+11715000Y+1165000D01*
D90*
X+11756444Y+1221284D02*
X+11673557Y+1221284D01*
X+11673557Y+1298990D01*
X+11687371Y+1314532D01*
X+11701186Y+1314532D01*
X+11715000Y+1298990D01*
X+11715000Y+1221284D01*
X+11715000Y+1298990D02*
X+11728815Y+1314532D01*
X+11756444Y+1314532D01*
X+11687371Y+1361156D02*
X+11673557Y+1376697D01*
X+11673557Y+1423321D01*
X+11687371Y+1438863D01*
X+11701186Y+1438863D01*
X+11715000Y+1423321D01*
X+11728815Y+1438863D01*
X+11742630Y+1438863D01*
X+11756444Y+1423321D01*
X+11756444Y+1376697D01*
X+11742630Y+1361156D01*
X+11715000Y+1392239D02*
X+11715000Y+1423321D01*
X+11673557Y+1485487D02*
X+11673557Y+1563194D01*
X+11687371Y+1563194D01*
X+11756444Y+1485487D01*
D72*
X+10435000Y+2995000D02*
X+10645000Y+2995000D01*
X+10645000Y+3035000D01*
X+10435000Y+3035000D01*
X+10435000Y+2995000D01*
D38*
X+3381920Y+378920D02*
X+4154080Y+378920D01*
X+4154080Y+1024080D01*
X+3381920Y+1024080D01*
X+3381920Y+378920D01*
D69*
X+3895000Y+765000D02*
X+3895000Y+765000D01*
D100*
X+3631585Y+534775D02*
X+3650110Y+534775D01*
X+3668635Y+555615D01*
X+3668635Y+638978D01*
X+3650110Y+659818D01*
X+3557485Y+659818D01*
X+3631585Y+826543D02*
X+3631585Y+701500D01*
X+3557485Y+784862D01*
X+3668635Y+784862D01*
D38*
X+2896100Y+1762100D02*
X+4089900Y+1762100D01*
X+4089900Y+1939900D01*
X+2896100Y+1939900D01*
X+2896100Y+1762100D01*
D80*
X+4001000Y+1851000D02*
X+4001000Y+1851000D01*
D81*
X+3272352Y+1815796D02*
X+3272352Y+1886204D01*
X+3338359Y+1886204D01*
X+3351561Y+1874469D01*
X+3351561Y+1862735D01*
X+3338359Y+1851000D01*
X+3272352Y+1851000D01*
X+3338359Y+1851000D02*
X+3351561Y+1839265D01*
X+3351561Y+1815796D01*
X+3404367Y+1862735D02*
X+3430770Y+1886204D01*
X+3430770Y+1815796D01*
X+3496777Y+1874469D02*
X+3509979Y+1886204D01*
X+3549583Y+1886204D01*
X+3562785Y+1874469D01*
X+3562785Y+1862735D01*
X+3549583Y+1851000D01*
X+3562785Y+1839265D01*
X+3562785Y+1827531D01*
X+3549583Y+1815796D01*
X+3509979Y+1815796D01*
X+3496777Y+1827531D01*
X+3523180Y+1851000D02*
X+3549583Y+1851000D01*
D38*
X+2880700Y+1155300D02*
X+4125300Y+1155300D01*
X+4125300Y+1432160D01*
X+2880700Y+1432160D01*
X+2880700Y+1155300D01*
D77*
X+4011000Y+1295000D02*
X+4011000Y+1295000D01*
D79*
X+3258170Y+1238789D02*
X+3258170Y+1348670D01*
X+3340580Y+1348670D01*
X+3381785Y+1312043D01*
X+3381785Y+1275416D01*
X+3340580Y+1238789D01*
X+3258170Y+1238789D01*
X+3443592Y+1348670D02*
X+3546605Y+1348670D01*
X+3546605Y+1330356D01*
X+3443592Y+1238789D01*
D38*
X+3318920Y+2191500D02*
X+3837080Y+2191500D01*
X+3837080Y+3080500D01*
X+3318920Y+3080500D01*
X+3318920Y+2191500D01*
D80*
X+3451000Y+2255000D02*
X+3451000Y+2255000D01*
D95*
X+3510182Y+2482076D02*
X+3623212Y+2482076D01*
X+3645818Y+2507507D01*
X+3645818Y+2609234D01*
X+3623212Y+2634666D01*
X+3510182Y+2634666D01*
X+3510182Y+2838120D02*
X+3510182Y+2710961D01*
X+3555394Y+2710961D01*
X+3555394Y+2812688D01*
X+3578000Y+2838120D01*
X+3623212Y+2838120D01*
X+3645818Y+2812688D01*
X+3645818Y+2736393D01*
X+3623212Y+2710961D01*
D38*
X+3006100Y+2376100D02*
X+3183900Y+2376100D01*
X+3183900Y+3569900D01*
X+3006100Y+3569900D01*
X+3006100Y+2376100D01*
D80*
X+3095000Y+3481000D02*
X+3095000Y+3481000D01*
D81*
X+3130204Y+2752352D02*
X+3059796Y+2752352D01*
X+3059796Y+2818359D01*
X+3071531Y+2831561D01*
X+3083265Y+2831561D01*
X+3095000Y+2818359D01*
X+3095000Y+2752352D01*
X+3095000Y+2818359D02*
X+3106735Y+2831561D01*
X+3130204Y+2831561D01*
X+3083265Y+2884367D02*
X+3059796Y+2910770D01*
X+3130204Y+2910770D01*
X+3071531Y+3042785D02*
X+3059796Y+3029583D01*
X+3059796Y+2989979D01*
X+3071531Y+2976777D01*
X+3118469Y+2976777D01*
X+3130204Y+2989979D01*
X+3130204Y+3029583D01*
X+3118469Y+3042785D01*
X+3106735Y+3042785D01*
X+3095000Y+3029583D01*
X+3095000Y+2976777D01*
D38*
X+3896100Y+2386100D02*
X+4073900Y+2386100D01*
X+4073900Y+3579900D01*
X+3896100Y+3579900D01*
X+3896100Y+2386100D01*
D80*
X+3985000Y+2475000D02*
X+3985000Y+2475000D01*
D81*
X+4020204Y+2886812D02*
X+3949796Y+2886812D01*
X+3949796Y+2952819D01*
X+3961531Y+2966021D01*
X+3973265Y+2966021D01*
X+3985000Y+2952819D01*
X+3985000Y+2886812D01*
X+3985000Y+2952819D02*
X+3996735Y+2966021D01*
X+4020204Y+2966021D01*
X+3973265Y+3018827D02*
X+3949796Y+3045230D01*
X+4020204Y+3045230D01*
X+3985000Y+3124439D02*
X+3973265Y+3111237D01*
X+3961531Y+3111237D01*
X+3949796Y+3124439D01*
X+3949796Y+3164043D01*
X+3961531Y+3177245D01*
X+3973265Y+3177245D01*
X+3985000Y+3164043D01*
X+3985000Y+3124439D01*
X+3996735Y+3111237D01*
X+4008469Y+3111237D01*
X+4020204Y+3124439D01*
X+4020204Y+3164043D01*
X+4008469Y+3177245D01*
X+3996735Y+3177245D01*
X+3985000Y+3164043D01*
D38*
X+2906100Y+1512100D02*
X+4099900Y+1512100D01*
X+4099900Y+1689900D01*
X+2906100Y+1689900D01*
X+2906100Y+1512100D01*
D80*
X+2995000Y+1601000D02*
X+2995000Y+1601000D01*
D81*
X+3406812Y+1565796D02*
X+3406812Y+1636204D01*
X+3472819Y+1636204D01*
X+3486021Y+1624469D01*
X+3486021Y+1612735D01*
X+3472819Y+1601000D01*
X+3406812Y+1601000D01*
X+3472819Y+1601000D02*
X+3486021Y+1589265D01*
X+3486021Y+1565796D01*
X+3538827Y+1612735D02*
X+3565230Y+1636204D01*
X+3565230Y+1565796D01*
X+3697245Y+1636204D02*
X+3631237Y+1636204D01*
X+3631237Y+1612735D01*
X+3684043Y+1612735D01*
X+3697245Y+1601000D01*
X+3697245Y+1577531D01*
X+3684043Y+1565796D01*
X+3644439Y+1565796D01*
X+3631237Y+1577531D01*
D38*
X+4185920Y+378920D02*
X+4958080Y+378920D01*
X+4958080Y+1024080D01*
X+4185920Y+1024080D01*
X+4185920Y+378920D01*
D69*
X+4699000Y+765000D02*
X+4699000Y+765000D01*
D100*
X+4435585Y+451413D02*
X+4454110Y+451413D01*
X+4472635Y+472253D01*
X+4472635Y+555616D01*
X+4454110Y+576456D01*
X+4361485Y+576456D01*
X+4398535Y+659819D02*
X+4361485Y+701500D01*
X+4472635Y+701500D01*
X+4435585Y+909906D02*
X+4435585Y+784863D01*
X+4361485Y+868225D01*
X+4472635Y+868225D01*
D38*
X+4210100Y+1176100D02*
X+5403900Y+1176100D01*
X+5403900Y+1353900D01*
X+4210100Y+1353900D01*
X+4210100Y+1176100D01*
D80*
X+4299000Y+1265000D02*
X+4299000Y+1265000D01*
D81*
X+4710812Y+1229796D02*
X+4710812Y+1300204D01*
X+4776819Y+1300204D01*
X+4790021Y+1288469D01*
X+4790021Y+1276735D01*
X+4776819Y+1265000D01*
X+4710812Y+1265000D01*
X+4776819Y+1265000D02*
X+4790021Y+1253265D01*
X+4790021Y+1229796D01*
X+4842827Y+1276735D02*
X+4869230Y+1300204D01*
X+4869230Y+1229796D01*
X+5001245Y+1276735D02*
X+4988043Y+1265000D01*
X+4948439Y+1265000D01*
X+4935237Y+1276735D01*
X+4935237Y+1288469D01*
X+4948439Y+1300204D01*
X+4988043Y+1300204D01*
X+5001245Y+1288469D01*
X+5001245Y+1241531D01*
X+4988043Y+1229796D01*
X+4948439Y+1229796D01*
D38*
X+4210100Y+1416100D02*
X+5403900Y+1416100D01*
X+5403900Y+1593900D01*
X+4210100Y+1593900D01*
X+4210100Y+1416100D01*
D80*
X+5315000Y+1505000D02*
X+5315000Y+1505000D01*
D81*
X+4586352Y+1469796D02*
X+4586352Y+1540204D01*
X+4652359Y+1540204D01*
X+4665561Y+1528469D01*
X+4665561Y+1516735D01*
X+4652359Y+1505000D01*
X+4586352Y+1505000D01*
X+4652359Y+1505000D02*
X+4665561Y+1493265D01*
X+4665561Y+1469796D01*
X+4705165Y+1528469D02*
X+4718367Y+1540204D01*
X+4757971Y+1540204D01*
X+4771173Y+1528469D01*
X+4771173Y+1516735D01*
X+4757971Y+1505000D01*
X+4718367Y+1505000D01*
X+4705165Y+1493265D01*
X+4705165Y+1469796D01*
X+4771173Y+1469796D01*
X+4797576Y+1481531D02*
X+4797576Y+1528469D01*
X+4810777Y+1540204D01*
X+4863583Y+1540204D01*
X+4876785Y+1528469D01*
X+4876785Y+1481531D01*
X+4863583Y+1469796D01*
X+4810777Y+1469796D01*
X+4797576Y+1481531D01*
X+4797576Y+1469796D02*
X+4876785Y+1540204D01*
D38*
X+4170700Y+1657840D02*
X+5415300Y+1657840D01*
X+5415300Y+1934700D01*
X+4170700Y+1934700D01*
X+4170700Y+1657840D01*
D77*
X+4285000Y+1795000D02*
X+4285000Y+1795000D01*
D79*
X+4708190Y+1741329D02*
X+4708190Y+1851210D01*
X+4790600Y+1851210D01*
X+4831805Y+1814583D01*
X+4831805Y+1777956D01*
X+4790600Y+1741329D01*
X+4708190Y+1741329D01*
X+4914215Y+1796270D02*
X+4893612Y+1814583D01*
X+4893612Y+1832896D01*
X+4914215Y+1851210D01*
X+4976022Y+1851210D01*
X+4996625Y+1832896D01*
X+4996625Y+1814583D01*
X+4976022Y+1796270D01*
X+4914215Y+1796270D01*
X+4893612Y+1777956D01*
X+4893612Y+1759643D01*
X+4914215Y+1741329D01*
X+4976022Y+1741329D01*
X+4996625Y+1759643D01*
X+4996625Y+1777956D01*
X+4976022Y+1796270D01*
D38*
X+4492920Y+2149500D02*
X+5011080Y+2149500D01*
X+5011080Y+3038500D01*
X+4492920Y+3038500D01*
X+4492920Y+2149500D01*
D80*
X+4625000Y+2213000D02*
X+4625000Y+2213000D01*
D95*
X+4684182Y+2440076D02*
X+4797212Y+2440076D01*
X+4819818Y+2465507D01*
X+4819818Y+2567234D01*
X+4797212Y+2592666D01*
X+4684182Y+2592666D01*
X+4706788Y+2796120D02*
X+4684182Y+2770688D01*
X+4684182Y+2694393D01*
X+4706788Y+2668961D01*
X+4797212Y+2668961D01*
X+4819818Y+2694393D01*
X+4819818Y+2770688D01*
X+4797212Y+2796120D01*
X+4774606Y+2796120D01*
X+4752000Y+2770688D01*
X+4752000Y+2668961D01*
D38*
X+5066100Y+2400100D02*
X+5243900Y+2400100D01*
X+5243900Y+3593900D01*
X+5066100Y+3593900D01*
X+5066100Y+2400100D01*
D80*
X+5155000Y+3505000D02*
X+5155000Y+3505000D01*
D81*
X+5190204Y+2776352D02*
X+5119796Y+2776352D01*
X+5119796Y+2842359D01*
X+5131531Y+2855561D01*
X+5143265Y+2855561D01*
X+5155000Y+2842359D01*
X+5155000Y+2776352D01*
X+5155000Y+2842359D02*
X+5166735Y+2855561D01*
X+5190204Y+2855561D01*
X+5131531Y+2895165D02*
X+5119796Y+2908367D01*
X+5119796Y+2947971D01*
X+5131531Y+2961173D01*
X+5143265Y+2961173D01*
X+5155000Y+2947971D01*
X+5155000Y+2908367D01*
X+5166735Y+2895165D01*
X+5190204Y+2895165D01*
X+5190204Y+2961173D01*
X+5143265Y+3013979D02*
X+5119796Y+3040382D01*
X+5190204Y+3040382D01*
D38*
X+4246100Y+2396100D02*
X+4423900Y+2396100D01*
X+4423900Y+3589900D01*
X+4246100Y+3589900D01*
X+4246100Y+2396100D01*
D80*
X+4335000Y+3501000D02*
X+4335000Y+3501000D01*
D81*
X+4370204Y+2772352D02*
X+4299796Y+2772352D01*
X+4299796Y+2838359D01*
X+4311531Y+2851561D01*
X+4323265Y+2851561D01*
X+4335000Y+2838359D01*
X+4335000Y+2772352D01*
X+4335000Y+2838359D02*
X+4346735Y+2851561D01*
X+4370204Y+2851561D01*
X+4311531Y+2891165D02*
X+4299796Y+2904367D01*
X+4299796Y+2943971D01*
X+4311531Y+2957173D01*
X+4323265Y+2957173D01*
X+4335000Y+2943971D01*
X+4335000Y+2904367D01*
X+4346735Y+2891165D01*
X+4370204Y+2891165D01*
X+4370204Y+2957173D01*
X+4311531Y+3062785D02*
X+4299796Y+3049583D01*
X+4299796Y+3009979D01*
X+4311531Y+2996777D01*
X+4358469Y+2996777D01*
X+4370204Y+3009979D01*
X+4370204Y+3049583D01*
X+4358469Y+3062785D01*
X+4346735Y+3062785D01*
X+4335000Y+3049583D01*
X+4335000Y+2996777D01*
D38*
X+10295790Y+5689001D02*
X+10841790Y+6235000D01*
X+10655000Y+6421790D01*
X+10109001Y+5875790D01*
X+10295790Y+5689001D01*
D101*
X+10295790Y+5875790D02*
X+10295790Y+5875790D01*
D102*
X+10380028Y+5910844D02*
X+10330845Y+5960027D01*
X+10376954Y+6006136D01*
X+10394372Y+6007161D01*
X+10402570Y+5998963D01*
X+10401545Y+5981545D01*
X+10355436Y+5935436D01*
X+10401545Y+5981545D02*
X+10418964Y+5982569D01*
X+10435358Y+5966175D01*
X+10509133Y+6039950D02*
X+10453803Y+5984619D01*
X+10404620Y+6033802D01*
X+10459950Y+6089132D01*
X+10429211Y+6009211D02*
X+10466098Y+6046098D01*
X+10519380Y+6066590D02*
X+10536798Y+6067615D01*
X+10573686Y+6104502D01*
X+10574710Y+6121920D01*
X+10566513Y+6130118D01*
X+10549094Y+6129094D01*
X+10512206Y+6092206D01*
X+10494788Y+6091182D01*
X+10486591Y+6099379D01*
X+10487615Y+6116797D01*
X+10524503Y+6153685D01*
X+10541921Y+6154710D01*
X+10656682Y+6187499D02*
X+10601352Y+6132168D01*
X+10552169Y+6181351D01*
X+10607499Y+6236681D01*
X+10576760Y+6156760D02*
X+10613647Y+6193647D01*
X+10625943Y+6255125D02*
X+10681273Y+6310455D01*
X+10653608Y+6282790D02*
X+10702791Y+6233607D01*
D38*
X+9841789Y+6035000D02*
X+9295790Y+6581000D01*
X+9109000Y+6394210D01*
X+9655000Y+5848211D01*
X+9841789Y+6035000D01*
D101*
X+9655000Y+6035000D02*
X+9655000Y+6035000D01*
D86*
X+9464350Y+6275940D02*
X+9491066Y+6274368D01*
X+9533497Y+6231937D01*
X+9536641Y+6178505D01*
X+9511496Y+6153360D01*
X+9458063Y+6156503D01*
X+9415632Y+6198934D01*
X+9414060Y+6225651D01*
X+9382629Y+6307371D02*
X+9384201Y+6280654D01*
X+9371629Y+6268082D01*
X+9344912Y+6269654D01*
X+9302481Y+6312085D01*
X+9300909Y+6338802D01*
X+9313481Y+6351374D01*
X+9340198Y+6349802D01*
X+9382629Y+6307371D01*
X+9409346Y+6305799D01*
X+9421918Y+6318371D01*
X+9420346Y+6345088D01*
X+9377915Y+6387519D01*
X+9351199Y+6389091D01*
X+9338626Y+6376519D01*
X+9340198Y+6349802D01*
D38*
X+10603421Y+7099144D02*
X+9759277Y+6255000D01*
X+9885001Y+6129276D01*
X+10729145Y+6973420D01*
X+10603421Y+7099144D01*
D101*
X+10603421Y+6973420D02*
X+10603421Y+6973420D01*
D81*
X+10145214Y+6465427D02*
X+10095428Y+6515213D01*
X+10142102Y+6561887D01*
X+10159735Y+6562924D01*
X+10168032Y+6554627D01*
X+10166995Y+6536994D01*
X+10120321Y+6490320D01*
X+10166995Y+6536994D02*
X+10184628Y+6538031D01*
X+10201223Y+6521436D01*
X+10179441Y+6599227D02*
X+10226116Y+6645901D01*
X+10234414Y+6637603D01*
X+10229227Y+6549441D01*
D38*
X+10969396Y+6404210D02*
X+11695000Y+5678605D01*
X+12061395Y+6045000D01*
X+11335790Y+6770604D01*
X+10969396Y+6404210D01*
D103*
X+11335790Y+6404210D02*
X+11335790Y+6404210D01*
D104*
X+11711862Y+5943592D02*
X+11701294Y+6123255D01*
X+11796410Y+6028140D02*
X+11616746Y+6038707D01*
X+11581517Y+6130301D02*
X+11521629Y+6133824D01*
X+11606177Y+6218372D01*
D38*
X+12075000Y+6248211D02*
X+12441394Y+6614605D01*
X+12254605Y+6801394D01*
X+11888211Y+6435000D01*
X+12075000Y+6248211D01*
D101*
X+12075000Y+6435000D02*
X+12075000Y+6435000D01*
D105*
X+12192822Y+6522120D02*
X+12191864Y+6505810D01*
X+12165960Y+6479907D01*
X+12133341Y+6477988D01*
X+12117990Y+6493339D01*
X+12119908Y+6525959D01*
X+12145812Y+6551862D01*
X+12162122Y+6552821D01*
X+12204336Y+6579685D02*
X+12206254Y+6612305D01*
X+12252306Y+6566253D01*
X+12273412Y+6648761D02*
X+12275330Y+6681381D01*
X+12321382Y+6635329D01*
D38*
X+11685395Y+6598606D02*
X+12051789Y+6965000D01*
X+11865000Y+7151789D01*
X+11498606Y+6785395D01*
X+11685395Y+6598606D01*
D101*
X+11685395Y+6785395D02*
X+11685395Y+6785395D01*
D105*
X+11803217Y+6872515D02*
X+11802259Y+6856205D01*
X+11776355Y+6830302D01*
X+11743736Y+6828383D01*
X+11728385Y+6843734D01*
X+11730303Y+6876354D01*
X+11756207Y+6902257D01*
X+11772517Y+6903216D01*
X+11814731Y+6930080D02*
X+11816649Y+6962700D01*
X+11862701Y+6916648D01*
X+11867498Y+6998196D02*
X+11868456Y+7014507D01*
X+11894360Y+7040410D01*
X+11910670Y+7041369D01*
X+11918345Y+7033694D01*
X+11917385Y+7017385D01*
X+11891482Y+6991481D01*
X+11890523Y+6975171D01*
X+11905874Y+6959820D01*
X+11949046Y+7002993D01*
D38*
X+8025920Y+5901265D02*
X+8607580Y+5901265D01*
X+8607580Y+6482925D01*
X+8025920Y+6482925D01*
X+8025920Y+5901265D01*
D82*
X+8285000Y+6033345D02*
X+8285000Y+6033345D01*
D87*
X+8085636Y+6227096D02*
X+8085636Y+6329813D01*
X+8162674Y+6329813D01*
X+8201193Y+6295574D01*
X+8201193Y+6261335D01*
X+8162674Y+6227096D01*
X+8085636Y+6227096D01*
X+8278231Y+6295574D02*
X+8316750Y+6329813D01*
X+8316750Y+6227096D01*
X+8509345Y+6261335D02*
X+8393788Y+6261335D01*
X+8470826Y+6329813D01*
X+8470826Y+6227096D01*
D38*
X+8276100Y+4690100D02*
X+8453900Y+4690100D01*
X+8453900Y+5883900D01*
X+8276100Y+5883900D01*
X+8276100Y+4690100D01*
D80*
X+8365000Y+4779000D02*
X+8365000Y+4779000D01*
D81*
X+8400204Y+5190812D02*
X+8329796Y+5190812D01*
X+8329796Y+5256819D01*
X+8341531Y+5270021D01*
X+8353265Y+5270021D01*
X+8365000Y+5256819D01*
X+8365000Y+5190812D01*
X+8365000Y+5256819D02*
X+8376735Y+5270021D01*
X+8400204Y+5270021D01*
X+8341531Y+5309625D02*
X+8329796Y+5322827D01*
X+8329796Y+5362431D01*
X+8341531Y+5375633D01*
X+8353265Y+5375633D01*
X+8365000Y+5362431D01*
X+8365000Y+5322827D01*
X+8376735Y+5309625D01*
X+8400204Y+5309625D01*
X+8400204Y+5375633D01*
X+8341531Y+5415237D02*
X+8329796Y+5428439D01*
X+8329796Y+5468043D01*
X+8341531Y+5481245D01*
X+8353265Y+5481245D01*
X+8365000Y+5468043D01*
X+8376735Y+5481245D01*
X+8388469Y+5481245D01*
X+8400204Y+5468043D01*
X+8400204Y+5428439D01*
X+8388469Y+5415237D01*
X+8365000Y+5441640D02*
X+8365000Y+5468043D01*
D38*
X+8592920Y+2182920D02*
X+9365080Y+2182920D01*
X+9365080Y+2447080D01*
X+8592920Y+2447080D01*
X+8592920Y+2182920D01*
D80*
X+8725000Y+2315000D02*
X+8725000Y+2315000D01*
D86*
X+9022815Y+2279440D02*
X+9002812Y+2261660D01*
X+8942805Y+2261660D01*
X+8902800Y+2297220D01*
X+8902800Y+2332780D01*
X+8942805Y+2368340D01*
X+9002812Y+2368340D01*
X+9022815Y+2350560D01*
X+9182835Y+2350560D02*
X+9162832Y+2368340D01*
X+9102825Y+2368340D01*
X+9082822Y+2350560D01*
X+9082822Y+2279440D01*
X+9102825Y+2261660D01*
X+9162832Y+2261660D01*
X+9182835Y+2279440D01*
X+9182835Y+2297220D01*
X+9162832Y+2315000D01*
X+9082822Y+2315000D01*
D38*
X+8536100Y+966100D02*
X+8713900Y+966100D01*
X+8713900Y+2159900D01*
X+8536100Y+2159900D01*
X+8536100Y+966100D01*
D80*
X+8625000Y+1055000D02*
X+8625000Y+1055000D01*
D81*
X+8660204Y+1519618D02*
X+8589796Y+1519618D01*
X+8589796Y+1585625D01*
X+8601531Y+1598827D01*
X+8613265Y+1598827D01*
X+8625000Y+1585625D01*
X+8625000Y+1519618D01*
X+8625000Y+1585625D02*
X+8636735Y+1598827D01*
X+8660204Y+1598827D01*
X+8636735Y+1704439D02*
X+8636735Y+1625230D01*
X+8589796Y+1678036D01*
X+8660204Y+1678036D01*
D38*
X+1602920Y+2522920D02*
X+1867080Y+2522920D01*
X+1867080Y+3295080D01*
X+1602920Y+3295080D01*
X+1602920Y+2522920D01*
D80*
X+1735000Y+3163000D02*
X+1735000Y+3163000D01*
D86*
X+1770560Y+2705165D02*
X+1788340Y+2685162D01*
X+1788340Y+2625155D01*
X+1752780Y+2585150D01*
X+1717220Y+2585150D01*
X+1681660Y+2625155D01*
X+1681660Y+2685162D01*
X+1699440Y+2705165D01*
X+1717220Y+2785175D02*
X+1681660Y+2825180D01*
X+1788340Y+2825180D01*
X+1735000Y+2945195D02*
X+1717220Y+2925192D01*
X+1699440Y+2925192D01*
X+1681660Y+2945195D01*
X+1681660Y+3005202D01*
X+1699440Y+3025205D01*
X+1717220Y+3025205D01*
X+1735000Y+3005202D01*
X+1735000Y+2945195D01*
X+1752780Y+2925192D01*
X+1770560Y+2925192D01*
X+1788340Y+2945195D01*
X+1788340Y+3005202D01*
X+1770560Y+3025205D01*
X+1752780Y+3025205D01*
X+1735000Y+3005202D01*
D38*
X+6584700Y+3617840D02*
X+7829300Y+3617840D01*
X+7829300Y+3894700D01*
X+6584700Y+3894700D01*
X+6584700Y+3617840D01*
D77*
X+6699000Y+3755000D02*
X+6699000Y+3755000D01*
D79*
X+7039780Y+3701329D02*
X+7039780Y+3811210D01*
X+7122190Y+3811210D01*
X+7163395Y+3774583D01*
X+7163395Y+3737956D01*
X+7122190Y+3701329D01*
X+7039780Y+3701329D01*
X+7245805Y+3774583D02*
X+7287010Y+3811210D01*
X+7287010Y+3701329D01*
X+7410625Y+3774583D02*
X+7451830Y+3811210D01*
X+7451830Y+3701329D01*
D72*
X+10025000Y+3275000D02*
X+10025000Y+3395000D01*
X+12275000Y+3395000D01*
X+12275000Y+3465000D01*
X+9695000Y+3465000D01*
X+9695000Y+3275000D01*
X+10025000Y+3275000D01*
D38*
X+8745920Y+3048920D02*
X+9327580Y+3048920D01*
X+9327580Y+3630580D01*
X+8745920Y+3630580D01*
X+8745920Y+3048920D01*
D82*
X+9005000Y+3181000D02*
X+9005000Y+3181000D01*
D87*
X+8805636Y+3374751D02*
X+8805636Y+3477468D01*
X+8882674Y+3477468D01*
X+8921193Y+3443229D01*
X+8921193Y+3408990D01*
X+8882674Y+3374751D01*
X+8805636Y+3374751D01*
X+8978971Y+3460349D02*
X+8998231Y+3477468D01*
X+9056009Y+3477468D01*
X+9075269Y+3460349D01*
X+9075269Y+3443229D01*
X+9056009Y+3426110D01*
X+8998231Y+3426110D01*
X+8978971Y+3408990D01*
X+8978971Y+3374751D01*
X+9075269Y+3374751D01*
X+9113788Y+3391870D02*
X+9113788Y+3460349D01*
X+9133047Y+3477468D01*
X+9210085Y+3477468D01*
X+9229345Y+3460349D01*
X+9229345Y+3391870D01*
X+9210085Y+3374751D01*
X+9133047Y+3374751D01*
X+9113788Y+3391870D01*
X+9113788Y+3374751D02*
X+9229345Y+3477468D01*
D72*
X+9405000Y+2105000D02*
X+12235000Y+2105000D01*
X+12235000Y+2185000D01*
X+9405000Y+2185000D01*
X+9405000Y+2105000D01*
D38*
X+5779920Y+2199920D02*
X+6340080Y+2199920D01*
X+6340080Y+2410080D01*
X+5779920Y+2410080D01*
X+5779920Y+2199920D01*
D89*
X+5885000Y+2305000D02*
X+5885000Y+2305000D01*
D90*
X+5941284Y+2263556D02*
X+5941284Y+2346443D01*
X+6018990Y+2346443D01*
X+6034532Y+2332629D01*
X+6034532Y+2318814D01*
X+6018990Y+2305000D01*
X+5941284Y+2305000D01*
X+6018990Y+2305000D02*
X+6034532Y+2291185D01*
X+6034532Y+2263556D01*
X+6096697Y+2318814D02*
X+6127780Y+2346443D01*
X+6127780Y+2263556D01*
X+6221028Y+2318814D02*
X+6252111Y+2346443D01*
X+6252111Y+2263556D01*
D38*
X+11968920Y+3685160D02*
X+12741080Y+3685160D01*
X+12741080Y+5219320D01*
X+11968920Y+5219320D01*
X+11968920Y+3685160D01*
D66*
X+12355000Y+3944240D02*
X+12355000Y+3944240D01*
D98*
X+12388359Y+4312033D02*
X+12421718Y+4312033D01*
X+12455076Y+4349561D01*
X+12455076Y+4499674D01*
X+12421718Y+4537203D01*
X+12254925Y+4537203D01*
X+12254925Y+4837430D02*
X+12254925Y+4649788D01*
X+12321642Y+4649788D01*
X+12321642Y+4799901D01*
X+12355000Y+4837430D01*
X+12421718Y+4837430D01*
X+12455076Y+4799901D01*
X+12455076Y+4687316D01*
X+12421718Y+4649788D01*
D38*
X+11908920Y+2285540D02*
X+12681080Y+2285540D01*
X+12681080Y+3311700D01*
X+11908920Y+3311700D01*
X+11908920Y+2285540D01*
D66*
X+12295000Y+2544620D02*
X+12295000Y+2544620D01*
D67*
X+12119436Y+2939132D02*
X+12119436Y+2919625D01*
X+12141381Y+2900118D01*
X+12229163Y+2900118D01*
X+12251109Y+2919625D01*
X+12251109Y+3017161D01*
X+12338891Y+2958640D02*
X+12316945Y+2978147D01*
X+12316945Y+2997654D01*
X+12338891Y+3017161D01*
X+12404727Y+3017161D01*
X+12426673Y+2997654D01*
X+12426673Y+2978147D01*
X+12404727Y+2958640D01*
X+12338891Y+2958640D01*
X+12316945Y+2939132D01*
X+12316945Y+2919625D01*
X+12338891Y+2900118D01*
X+12404727Y+2900118D01*
X+12426673Y+2919625D01*
X+12426673Y+2939132D01*
X+12404727Y+2958640D01*
D38*
X+3092920Y+4372920D02*
X+3357080Y+4372920D01*
X+3357080Y+4637080D01*
X+3092920Y+4637080D01*
X+3092920Y+4372920D01*
D106*
X+3110702Y+4496533D02*
X+3110702Y+4488066D01*
X+3120226Y+4479600D01*
X+3158326Y+4479600D01*
X+3167851Y+4488066D01*
X+3167851Y+4530399D01*
X+3205950Y+4513466D02*
X+3225000Y+4530399D01*
X+3225000Y+4479600D01*
X+3272624Y+4521933D02*
X+3282149Y+4530399D01*
X+3310724Y+4530399D01*
X+3320249Y+4521933D01*
X+3320249Y+4513466D01*
X+3310724Y+4505000D01*
X+3282149Y+4505000D01*
X+3272624Y+4496533D01*
X+3272624Y+4479600D01*
X+3320249Y+4479600D01*
D72*
X+9695000Y+2185000D02*
X+10025000Y+2185000D01*
X+10025000Y+2575000D01*
X+9695000Y+2575000D01*
X+9695000Y+2185000D01*
M02*
