G04 PROTEUS GERBER X2 FILE*
%TF.GenerationSoftware,Labcenter,Proteus,8.17-SP2-Build37159*%
%TF.CreationDate,2026-01-23T14:54:38+00:00*%
%TF.FileFunction,Paste,Bot*%
%TF.FilePolarity,Positive*%
%TF.Part,Single*%
%TF.SameCoordinates,{c806fbc5-056e-4950-b10f-91aba8f6062f}*%
%FSLAX45Y45*%
%MOMM*%
G01*
%AMPPAD056*
4,1,4,
0.682500,-0.017960,
0.017960,-0.682500,
-0.682500,0.017960,
-0.017960,0.682500,
0.682500,-0.017960,
0*%
%TA.AperFunction,Material*%
%ADD62PPAD056*%
%AMPPAD057*
4,1,36,
-0.379080,-0.667550,
-0.387770,-0.672130,
-0.397030,-0.674870,
-0.406590,-0.675780,
-0.416140,-0.674870,
-0.425400,-0.672130,
-0.434090,-0.667550,
-0.441940,-0.661140,
-0.661140,-0.441940,
-0.667550,-0.434090,
-0.672130,-0.425400,
-0.674870,-0.416140,
-0.675780,-0.406590,
-0.674870,-0.397030,
-0.672130,-0.387770,
-0.667550,-0.379080,
-0.661140,-0.371230,
0.371230,0.661140,
0.379080,0.667550,
0.387770,0.672130,
0.397030,0.674870,
0.406590,0.675780,
0.416140,0.674870,
0.425400,0.672130,
0.434090,0.667550,
0.441940,0.661140,
0.661140,0.441940,
0.667550,0.434090,
0.672130,0.425400,
0.674870,0.416140,
0.675780,0.406590,
0.674870,0.397030,
0.672130,0.387770,
0.667550,0.379080,
0.661140,0.371230,
-0.371230,-0.661140,
-0.379080,-0.667550,
0*%
%TA.AperFunction,Material*%
%ADD63PPAD057*%
%TA.AperFunction,Material*%
%ADD64R,1.803400X2.260600*%
%AMPPAD059*
4,1,4,
0.017960,0.682500,
0.682500,0.017960,
-0.017960,-0.682500,
-0.682500,-0.017960,
0.017960,0.682500,
0*%
%TA.AperFunction,Material*%
%ADD65PPAD059*%
%TA.AperFunction,Profile*%
%ADD72C,0.101600*%
%TD.AperFunction*%
D62*
X+11341862Y+5240282D03*
X+11454999Y+5353419D03*
X+11225000Y+5371862D03*
X+11338137Y+5484999D03*
D63*
X+10098101Y+5426486D03*
X+10144063Y+5380524D03*
X+10190025Y+5334562D03*
X+10235987Y+5288600D03*
X+10282294Y+5242293D03*
X+10328273Y+5196314D03*
X+10374580Y+5150007D03*
X+10420542Y+5104045D03*
X+10466504Y+5058083D03*
X+10512466Y+5012121D03*
X+10105172Y+4604828D03*
X+10059210Y+4650790D03*
X+10013248Y+4696752D03*
X+9967286Y+4742714D03*
X+9920979Y+4789021D03*
X+9875000Y+4835000D03*
X+9828693Y+4881307D03*
X+9782731Y+4927269D03*
X+9736769Y+4973231D03*
X+9690808Y+5019193D03*
D64*
X+10735000Y+4195000D03*
X+10465000Y+4195000D03*
X+11015000Y+4195000D03*
X+9955000Y+4185000D03*
X+10195000Y+4195000D03*
D65*
X+11455000Y+5125000D03*
X+11568138Y+5011862D03*
D62*
X+11125000Y+5465000D03*
X+11238137Y+5578137D03*
D72*
X+165000Y+145000D02*
X+12885004Y+145000D01*
X+12885004Y+7395000D01*
X+165000Y+7395000D01*
X+165000Y+145000D01*
X+9695000Y+2565000D02*
X+10025000Y+2565000D01*
X+10025000Y+3275000D01*
X+9695000Y+3275000D01*
X+9695000Y+2565000D01*
X+1265000Y+6165000D02*
X+1370000Y+6165000D01*
X+1370000Y+7295000D01*
X+1265000Y+7295000D01*
X+1265000Y+6165000D01*
X+9405000Y+2105000D02*
X+9405000Y+1595000D01*
X+9245000Y+1495000D01*
X+8905000Y+1495000D01*
X+8765000Y+1385000D01*
X+8765000Y+1105000D01*
X+8905000Y+1025000D01*
X+9245000Y+1025000D01*
X+9395000Y+935000D01*
X+9395000Y+465000D01*
X+9425000Y+465000D01*
X+9425000Y+955000D01*
X+9245000Y+1065000D01*
X+8905000Y+1065000D01*
X+8805000Y+1125000D01*
X+8805000Y+1365000D01*
X+8915000Y+1455000D01*
X+9265000Y+1455000D01*
X+9445000Y+1575000D01*
X+9445000Y+2105000D01*
X+9405000Y+2105000D01*
X+10435000Y+2995000D02*
X+10645000Y+2995000D01*
X+10645000Y+3035000D01*
X+10435000Y+3035000D01*
X+10435000Y+2995000D01*
X+10025000Y+3275000D02*
X+10025000Y+3395000D01*
X+12275000Y+3395000D01*
X+12275000Y+3465000D01*
X+9695000Y+3465000D01*
X+9695000Y+3275000D01*
X+10025000Y+3275000D01*
X+9405000Y+2105000D02*
X+12235000Y+2105000D01*
X+12235000Y+2185000D01*
X+9405000Y+2185000D01*
X+9405000Y+2105000D01*
X+9695000Y+2185000D02*
X+10025000Y+2185000D01*
X+10025000Y+2575000D01*
X+9695000Y+2575000D01*
X+9695000Y+2185000D01*
M02*
