M48
METRIC,TZ
T01C0.5080
T02C0.3810
T03C1.5240
T04C1.1430
T05C0.8130
T06C1.0160
T07C0.7620
T08C0.7500
T09C0.6350
%
T01
X+54703Y+5075
X+50405Y+4982
X+89576Y+51226
X+94390Y+56024
X+68085Y+28033
X+68111Y+34383
X+41703Y+23250
X+41703Y+31903
X+61879Y+46984
X+61850Y+39150
X+47234Y+32270
X+47223Y+42322
X+79356Y+55850
X+68390Y+24229
X+74905Y+24259
X+125725Y+54024
X+120402Y+53960
X+107350Y+41950
X+107250Y+47271
X+86949Y+37112
X+86949Y+49736
X+79287Y+46255
X+79397Y+33518
T02
X+89592Y+51226
X+94390Y+56056
X+41703Y+23184
X+41696Y+31909
X+107323Y+47271
T03
X+8650Y+51950
X+8650Y+56954
X+63450Y+7550
X+58446Y+7550
X+92150Y+18650
X+92150Y+6650
X+90150Y+12650
X+104350Y+18650
X+104350Y+6650
X+122850Y+17254
X+122850Y+12250
X+122850Y+7246
X+123550Y+39442
X+123550Y+44446
X+123550Y+49450
X+122950Y+25446
X+122950Y+30450
T04
X+6230Y+66370
X+28070Y+66370
X+32350Y+66350
X+10450Y+66250
T05
X+21150Y+57450
X+22150Y+52450
T06
X+16250Y+45780
X+16250Y+59750
X+26650Y+58950
X+26650Y+48790
X+44370Y+67350
X+46910Y+67350
X+49450Y+67350
X+52450Y+61850
X+42290Y+61850
X+59450Y+63050
X+59450Y+60510
X+13950Y+20390
X+13950Y+30550
X+6590Y+16150
X+16750Y+16150
X+27550Y+22750
X+27550Y+32910
X+65950Y+13750
X+55790Y+13750
X+71410Y+33110
X+73950Y+33110
X+83550Y+7490
X+83550Y+17650
X+29950Y+12950
X+40110Y+12950
X+53010Y+17950
X+42850Y+17950
X+82850Y+62873
X+82850Y+60333
X+77150Y+37550
X+66990Y+37550
X+90050Y+34350
X+90050Y+31810
T07
X+37450Y+48790
X+37450Y+58950
X+41070Y+56750
X+46150Y+56750
X+53930Y+56750
X+48850Y+56750
X+54350Y+66550
X+64510Y+66550
X+58650Y+57550
X+58650Y+47390
X+84510Y+66750
X+87050Y+66750
X+89590Y+66750
X+87050Y+60350
X+87050Y+63850
X+92130Y+57850
X+87050Y+57850
X+22350Y+7450
X+19810Y+7450
X+17270Y+7450
X+14730Y+7450
X+20250Y+28150
X+20250Y+17990
X+10050Y+30650
X+10050Y+20490
X+6150Y+28050
X+6150Y+22970
X+22750Y+31550
X+22750Y+21390
X+24950Y+26950
X+24950Y+16790
X+66150Y+20050
X+55990Y+20050
X+68350Y+14650
X+68350Y+24810
X+57850Y+26530
X+60390Y+26530
X+62930Y+26530
X+65470Y+26530
X+65470Y+34150
X+62930Y+34150
X+60390Y+34150
X+57850Y+34150
X+66250Y+63550
X+66250Y+53390
X+63350Y+53390
X+63350Y+63550
X+68650Y+62650
X+68650Y+52490
X+66850Y+50450
X+61770Y+50450
X+54650Y+24090
X+54650Y+34250
X+55950Y+17250
X+66110Y+17250
X+64810Y+37450
X+54650Y+37450
X+74650Y+63610
X+74650Y+53450
X+71650Y+53350
X+71650Y+63510
X+75730Y+50350
X+70650Y+50350
X+77050Y+62650
X+77050Y+52490
X+109250Y+30550
X+109250Y+28010
X+109250Y+25470
X+105350Y+31950
X+105350Y+28450
X+115450Y+47410
X+115450Y+37250
X+94750Y+31850
X+94750Y+29310
X+94750Y+26770
X+102370Y+26770
X+102370Y+29310
X+102370Y+31850
X+82050Y+37110
X+82050Y+26950
X+77850Y+26870
X+75310Y+26870
X+75310Y+19250
X+77850Y+19250
X+72150Y+18450
X+72150Y+21950
X+74350Y+16250
X+70850Y+16250
X+70390Y+13150
X+80550Y+13150
X+72050Y+10550
X+77130Y+10550
X+76114Y+6739
X+74082Y+6739
X+72050Y+6739
X+84050Y+22850
X+84050Y+33010
X+113150Y+15010
X+113150Y+4850
X+117150Y+11650
X+117150Y+15150
X+38950Y+7650
X+36410Y+7650
X+40010Y+18510
X+29850Y+18510
X+34510Y+22550
X+37050Y+22550
X+37050Y+30170
X+34510Y+30170
X+30950Y+34810
X+30950Y+24650
X+39850Y+24750
X+39850Y+34910
X+29950Y+16010
X+40110Y+16010
X+46990Y+7650
X+44450Y+7650
X+42990Y+12650
X+53150Y+12650
X+53150Y+15050
X+42990Y+15050
X+46250Y+22130
X+48790Y+22130
X+48790Y+29750
X+46250Y+29750
X+51550Y+35050
X+51550Y+24890
X+43350Y+35010
X+43350Y+24850
X+102958Y+58758
X+106550Y+62350
X+96550Y+60350
X+92958Y+63942
X+106034Y+69734
X+98850Y+62550
X+113358Y+64042
X+116950Y+60450
X+120750Y+64350
X+122546Y+66146
X+116854Y+67854
X+118650Y+69650
X+83650Y+47790
X+83650Y+57950
X+87250Y+23150
X+92330Y+23150
X+86250Y+10550
X+86250Y+20710
X+17350Y+31630
X+17350Y+26550
X+58850Y+23050
X+62350Y+23050
X+32250Y+45050
X+118650Y+58750
X+111750Y+65750
T08
X+43250Y+49450
X+45750Y+49450
X+53950Y+49450
X+51450Y+49450
T09
X+112450Y+59550
X+117650Y+65050
M30
