G04 PROTEUS GERBER X2 FILE*
%TF.GenerationSoftware,Labcenter,Proteus,8.17-SP2-Build37159*%
%TF.CreationDate,2026-01-23T14:41:26+00:00*%
%TF.FileFunction,NonPlated,0,2,NPTH*%
%TF.FilePolarity,Positive*%
%TF.Part,Single*%
%TF.SameCoordinates,{0d379d3b-e8ef-459f-a6c0-3a4d9c06314a}*%
%FSLAX45Y45*%
%MOMM*%
G01*
%TA.AperFunction,Profile*%
%ADD36C,0.101600*%
%TD.AperFunction*%
D36*
X+165000Y+145000D02*
X+12885004Y+145000D01*
X+12885004Y+7395000D01*
X+165000Y+7395000D01*
X+165000Y+145000D01*
X+9695000Y+2565000D02*
X+10025000Y+2565000D01*
X+10025000Y+3275000D01*
X+9695000Y+3275000D01*
X+9695000Y+2565000D01*
X+1265000Y+6165000D02*
X+1370000Y+6165000D01*
X+1370000Y+7295000D01*
X+1265000Y+7295000D01*
X+1265000Y+6165000D01*
X+9405000Y+2105000D02*
X+9405000Y+1595000D01*
X+9245000Y+1495000D01*
X+8905000Y+1495000D01*
X+8765000Y+1385000D01*
X+8765000Y+1105000D01*
X+8905000Y+1025000D01*
X+9245000Y+1025000D01*
X+9395000Y+935000D01*
X+9395000Y+465000D01*
X+9425000Y+465000D01*
X+9425000Y+955000D01*
X+9245000Y+1065000D01*
X+8905000Y+1065000D01*
X+8805000Y+1125000D01*
X+8805000Y+1365000D01*
X+8915000Y+1455000D01*
X+9265000Y+1455000D01*
X+9445000Y+1575000D01*
X+9445000Y+2105000D01*
X+9405000Y+2105000D01*
X+10435000Y+2995000D02*
X+10645000Y+2995000D01*
X+10645000Y+3035000D01*
X+10435000Y+3035000D01*
X+10435000Y+2995000D01*
X+10025000Y+3275000D02*
X+10025000Y+3395000D01*
X+12275000Y+3395000D01*
X+12275000Y+3465000D01*
X+9695000Y+3465000D01*
X+9695000Y+3275000D01*
X+10025000Y+3275000D01*
X+9405000Y+2105000D02*
X+12235000Y+2105000D01*
X+12235000Y+2185000D01*
X+9405000Y+2185000D01*
X+9405000Y+2105000D01*
X+9695000Y+2185000D02*
X+10025000Y+2185000D01*
X+10025000Y+2575000D01*
X+9695000Y+2575000D01*
X+9695000Y+2185000D01*
M02*
